<mxfile host="app.diagrams.net" agent="Mozilla/5.0 (X11; Linux x86_64; rv:133.0) Gecko/20100101 Firefox/133.0" version="26.0.6" pages="5">
  <diagram name="Page-1" id="xSlXatTa5TizmNH104zd">
    <mxGraphModel grid="1" page="1" gridSize="10" guides="1" tooltips="1" connect="1" arrows="1" fold="1" pageScale="1" pageWidth="1100" pageHeight="850" math="0" shadow="0">
      <root>
        <mxCell id="0" />
        <mxCell id="1" parent="0" />
        <mxCell id="Sg_4rNXFZ54ifpU4IuhS-2" value="&lt;font style=&quot;font-size: 25px;&quot;&gt;Add&lt;/font&gt;&lt;div&gt;&lt;font style=&quot;font-size: 25px;&quot;&gt;Product&lt;/font&gt;&lt;/div&gt;" style="shape=ellipse;html=1;dashed=0;whiteSpace=wrap;perimeter=ellipsePerimeter;" vertex="1" parent="1">
          <mxGeometry x="800" y="700" width="110" height="110" as="geometry" />
        </mxCell>
        <mxCell id="Sg_4rNXFZ54ifpU4IuhS-3" value="&lt;font style=&quot;font-size: 25px;&quot;&gt;Add&lt;/font&gt;&lt;div&gt;&lt;font style=&quot;font-size: 25px;&quot;&gt;New&lt;/font&gt;&lt;/div&gt;&lt;div&gt;&lt;font style=&quot;font-size: 25px;&quot;&gt;Import&lt;/font&gt;&lt;/div&gt;" style="shape=ellipse;html=1;dashed=0;whiteSpace=wrap;perimeter=ellipsePerimeter;" vertex="1" parent="1">
          <mxGeometry x="1730" y="600" width="110" height="110" as="geometry" />
        </mxCell>
        <mxCell id="Sg_4rNXFZ54ifpU4IuhS-4" value="&lt;font style=&quot;font-size: 25px;&quot;&gt;Add&lt;/font&gt;&lt;div&gt;&lt;font style=&quot;font-size: 25px;&quot;&gt;Suppiler&lt;/font&gt;&lt;/div&gt;" style="shape=ellipse;html=1;dashed=0;whiteSpace=wrap;perimeter=ellipsePerimeter;" vertex="1" parent="1">
          <mxGeometry x="1770" y="220" width="110" height="110" as="geometry" />
        </mxCell>
        <mxCell id="Sg_4rNXFZ54ifpU4IuhS-5" value="&lt;font style=&quot;font-size: 25px;&quot;&gt;Edit&lt;/font&gt;&lt;div&gt;&lt;font style=&quot;font-size: 25px;&quot;&gt;Stock&lt;/font&gt;&lt;/div&gt;" style="shape=ellipse;html=1;dashed=0;whiteSpace=wrap;perimeter=ellipsePerimeter;" vertex="1" parent="1">
          <mxGeometry x="800" y="360" width="110" height="110" as="geometry" />
        </mxCell>
        <mxCell id="Sg_4rNXFZ54ifpU4IuhS-6" value="&lt;font style=&quot;font-size: 25px;&quot;&gt;Check&amp;nbsp;&lt;/font&gt;&lt;div&gt;&lt;font style=&quot;font-size: 25px;&quot;&gt;Supplier&lt;/font&gt;&lt;/div&gt;" style="shape=ellipse;html=1;dashed=0;whiteSpace=wrap;perimeter=ellipsePerimeter;" vertex="1" parent="1">
          <mxGeometry x="1170" y="130" width="110" height="110" as="geometry" />
        </mxCell>
        <mxCell id="Sg_4rNXFZ54ifpU4IuhS-7" value="&lt;font style=&quot;font-size: 25px;&quot;&gt;Check&lt;/font&gt;&lt;div&gt;&lt;font style=&quot;font-size: 25px;&quot;&gt;Product&lt;/font&gt;&lt;/div&gt;" style="shape=ellipse;html=1;dashed=0;whiteSpace=wrap;perimeter=ellipsePerimeter;" vertex="1" parent="1">
          <mxGeometry x="310" y="555" width="110" height="110" as="geometry" />
        </mxCell>
        <mxCell id="Sg_4rNXFZ54ifpU4IuhS-8" value="&lt;font style=&quot;font-size: 25px;&quot;&gt;Edit&lt;/font&gt;&lt;div&gt;&lt;font style=&quot;font-size: 25px;&quot;&gt;Supplier&lt;/font&gt;&lt;/div&gt;" style="shape=ellipse;html=1;dashed=0;whiteSpace=wrap;perimeter=ellipsePerimeter;" vertex="1" parent="1">
          <mxGeometry x="1770" y="20" width="110" height="110" as="geometry" />
        </mxCell>
        <mxCell id="Sg_4rNXFZ54ifpU4IuhS-9" value="&lt;font style=&quot;font-size: 25px;&quot;&gt;Supplier&lt;/font&gt;" style="html=1;dashed=0;whiteSpace=wrap;" vertex="1" parent="1">
          <mxGeometry x="310" y="120" width="150" height="70" as="geometry" />
        </mxCell>
        <mxCell id="Sg_4rNXFZ54ifpU4IuhS-14" value="" style="endArrow=none;html=1;rounded=0;strokeWidth=3;" edge="1" parent="1">
          <mxGeometry relative="1" as="geometry">
            <mxPoint x="420" y="609.1700000000001" as="sourcePoint" />
            <mxPoint x="580" y="609.1700000000001" as="targetPoint" />
          </mxGeometry>
        </mxCell>
        <mxCell id="Sg_4rNXFZ54ifpU4IuhS-15" value="" style="endArrow=classic;html=1;rounded=0;strokeWidth=3;" edge="1" parent="1" target="Sg_4rNXFZ54ifpU4IuhS-5">
          <mxGeometry width="50" height="50" relative="1" as="geometry">
            <mxPoint x="580" y="610" as="sourcePoint" />
            <mxPoint x="630" y="560" as="targetPoint" />
          </mxGeometry>
        </mxCell>
        <mxCell id="Sg_4rNXFZ54ifpU4IuhS-16" value="" style="endArrow=classic;html=1;rounded=0;strokeWidth=3;entryX=0;entryY=0.5;entryDx=0;entryDy=0;" edge="1" parent="1" target="Sg_4rNXFZ54ifpU4IuhS-2">
          <mxGeometry width="50" height="50" relative="1" as="geometry">
            <mxPoint x="580" y="610" as="sourcePoint" />
            <mxPoint x="820" y="457" as="targetPoint" />
          </mxGeometry>
        </mxCell>
        <mxCell id="Sg_4rNXFZ54ifpU4IuhS-17" value="&lt;font color=&quot;#14ff24&quot; style=&quot;font-size: 25px;&quot;&gt;Product&lt;/font&gt;" style="html=1;dashed=0;whiteSpace=wrap;shape=partialRectangle;right=0;left=0;" vertex="1" parent="1">
          <mxGeometry x="330" y="760" width="100" height="30" as="geometry" />
        </mxCell>
        <mxCell id="Sg_4rNXFZ54ifpU4IuhS-18" value="&lt;font style=&quot;font-size: 25px;&quot;&gt;Supplier&lt;/font&gt;" style="html=1;dashed=0;whiteSpace=wrap;shape=partialRectangle;right=0;left=0;" vertex="1" parent="1">
          <mxGeometry x="1180" y="320" width="100" height="30" as="geometry" />
        </mxCell>
        <mxCell id="Sg_4rNXFZ54ifpU4IuhS-19" value="&lt;font style=&quot;font-size: 25px;&quot;&gt;Staff&lt;/font&gt;" style="html=1;dashed=0;whiteSpace=wrap;shape=partialRectangle;right=0;left=0;" vertex="1" parent="1">
          <mxGeometry x="1940" y="530" width="100" height="30" as="geometry" />
        </mxCell>
        <mxCell id="Sg_4rNXFZ54ifpU4IuhS-20" value="&lt;font style=&quot;font-size: 25px;&quot;&gt;Import&lt;/font&gt;" style="html=1;dashed=0;whiteSpace=wrap;shape=partialRectangle;right=0;left=0;" vertex="1" parent="1">
          <mxGeometry x="1940" y="635" width="100" height="30" as="geometry" />
        </mxCell>
        <mxCell id="Sg_4rNXFZ54ifpU4IuhS-21" value="&lt;font style=&quot;font-size: 25px;&quot;&gt;Supplier&lt;/font&gt;" style="html=1;dashed=0;whiteSpace=wrap;shape=partialRectangle;right=0;left=0;" vertex="1" parent="1">
          <mxGeometry x="1940" y="750" width="100" height="30" as="geometry" />
        </mxCell>
        <mxCell id="Sg_4rNXFZ54ifpU4IuhS-22" value="&lt;font style=&quot;font-size: 25px;&quot;&gt;Product&lt;/font&gt;" style="html=1;dashed=0;whiteSpace=wrap;shape=partialRectangle;right=0;left=0;" vertex="1" parent="1">
          <mxGeometry x="1200" y="650" width="100" height="30" as="geometry" />
        </mxCell>
        <mxCell id="Sg_4rNXFZ54ifpU4IuhS-23" value="&lt;font style=&quot;font-size: 25px;&quot;&gt;imported Pro.&lt;/font&gt;" style="text;html=1;align=center;verticalAlign=middle;resizable=0;points=[];autosize=1;strokeColor=none;fillColor=none;" vertex="1" parent="1">
          <mxGeometry x="420" y="560" width="170" height="40" as="geometry" />
        </mxCell>
        <mxCell id="Sg_4rNXFZ54ifpU4IuhS-24" value="&lt;font style=&quot;font-size: 25px;&quot;&gt;True&lt;/font&gt;" style="text;html=1;align=center;verticalAlign=middle;resizable=0;points=[];autosize=1;strokeColor=none;fillColor=none;rotation=-40;" vertex="1" parent="1">
          <mxGeometry x="625" y="483" width="70" height="40" as="geometry" />
        </mxCell>
        <mxCell id="Sg_4rNXFZ54ifpU4IuhS-25" value="&lt;font style=&quot;font-size: 25px;&quot;&gt;False&lt;/font&gt;" style="text;html=1;align=center;verticalAlign=middle;resizable=0;points=[];autosize=1;strokeColor=none;fillColor=none;rotation=30;" vertex="1" parent="1">
          <mxGeometry x="660" y="630" width="80" height="40" as="geometry" />
        </mxCell>
        <mxCell id="Sg_4rNXFZ54ifpU4IuhS-26" value="" style="endArrow=classic;html=1;rounded=0;exitX=0.5;exitY=1;exitDx=0;exitDy=0;entryX=0.638;entryY=0.008;entryDx=0;entryDy=0;entryPerimeter=0;" edge="1" parent="1" source="Sg_4rNXFZ54ifpU4IuhS-9" target="Sg_4rNXFZ54ifpU4IuhS-7">
          <mxGeometry width="50" height="50" relative="1" as="geometry">
            <mxPoint x="390" y="290" as="sourcePoint" />
            <mxPoint x="380" y="550" as="targetPoint" />
          </mxGeometry>
        </mxCell>
        <mxCell id="Sg_4rNXFZ54ifpU4IuhS-27" value="&lt;font style=&quot;font-size: 25px;&quot;&gt;imported Pro.&lt;/font&gt;" style="text;html=1;align=center;verticalAlign=middle;resizable=0;points=[];autosize=1;strokeColor=none;fillColor=none;rotation=90;" vertex="1" parent="1">
          <mxGeometry x="270" y="350" width="170" height="40" as="geometry" />
        </mxCell>
        <mxCell id="Sg_4rNXFZ54ifpU4IuhS-29" value="" style="endArrow=classic;html=1;rounded=0;entryX=0;entryY=0.5;entryDx=0;entryDy=0;" edge="1" parent="1" target="Sg_4rNXFZ54ifpU4IuhS-6">
          <mxGeometry width="50" height="50" relative="1" as="geometry">
            <mxPoint x="460" y="160" as="sourcePoint" />
            <mxPoint x="510" y="110" as="targetPoint" />
          </mxGeometry>
        </mxCell>
        <mxCell id="Sg_4rNXFZ54ifpU4IuhS-30" value="&lt;font style=&quot;font-size: 25px;&quot;&gt;Supplier&#39;s Info&lt;/font&gt;" style="text;html=1;align=center;verticalAlign=middle;resizable=0;points=[];autosize=1;strokeColor=none;fillColor=none;rotation=0;" vertex="1" parent="1">
          <mxGeometry x="660" y="120" width="180" height="40" as="geometry" />
        </mxCell>
        <mxCell id="Sg_4rNXFZ54ifpU4IuhS-31" value="" style="endArrow=classic;html=1;rounded=0;" edge="1" parent="1" target="Sg_4rNXFZ54ifpU4IuhS-8">
          <mxGeometry width="50" height="50" relative="1" as="geometry">
            <mxPoint x="1560" y="200" as="sourcePoint" />
            <mxPoint x="1610" y="150" as="targetPoint" />
          </mxGeometry>
        </mxCell>
        <mxCell id="Sg_4rNXFZ54ifpU4IuhS-32" value="" style="endArrow=classic;html=1;rounded=0;entryX=0;entryY=0.5;entryDx=0;entryDy=0;" edge="1" parent="1" target="Sg_4rNXFZ54ifpU4IuhS-4">
          <mxGeometry width="50" height="50" relative="1" as="geometry">
            <mxPoint x="1560" y="200" as="sourcePoint" />
            <mxPoint x="1785" y="108" as="targetPoint" />
          </mxGeometry>
        </mxCell>
        <mxCell id="Sg_4rNXFZ54ifpU4IuhS-33" value="" style="line;strokeWidth=1;rotatable=0;dashed=0;labelPosition=right;align=left;verticalAlign=middle;spacingTop=0;spacingLeft=6;points=[];portConstraint=eastwest;" vertex="1" parent="1">
          <mxGeometry x="1280" y="194" width="281" height="10" as="geometry" />
        </mxCell>
        <mxCell id="Sg_4rNXFZ54ifpU4IuhS-36" value="&lt;font style=&quot;font-size: 25px;&quot;&gt;Supplier&lt;/font&gt;" style="html=1;dashed=0;whiteSpace=wrap;shape=partialRectangle;right=0;left=0;" vertex="1" parent="1">
          <mxGeometry x="2010" y="130" width="100" height="30" as="geometry" />
        </mxCell>
        <mxCell id="Sg_4rNXFZ54ifpU4IuhS-37" value="" style="endArrow=classic;html=1;rounded=0;entryX=0.5;entryY=1;entryDx=0;entryDy=0;" edge="1" parent="1" target="Sg_4rNXFZ54ifpU4IuhS-7">
          <mxGeometry width="50" height="50" relative="1" as="geometry">
            <mxPoint x="370" y="760" as="sourcePoint" />
            <mxPoint x="420" y="710" as="targetPoint" />
          </mxGeometry>
        </mxCell>
        <mxCell id="Sg_4rNXFZ54ifpU4IuhS-38" value="" style="endArrow=classic;html=1;rounded=0;entryX=0.5;entryY=1;entryDx=0;entryDy=0;" edge="1" parent="1" target="Sg_4rNXFZ54ifpU4IuhS-6">
          <mxGeometry width="50" height="50" relative="1" as="geometry">
            <mxPoint x="1220" y="320" as="sourcePoint" />
            <mxPoint x="1270" y="270" as="targetPoint" />
          </mxGeometry>
        </mxCell>
        <mxCell id="Sg_4rNXFZ54ifpU4IuhS-39" value="&lt;font style=&quot;font-size: 25px;&quot;&gt;Supplier&#39;s Info&lt;/font&gt;" style="text;html=1;align=center;verticalAlign=middle;resizable=0;points=[];autosize=1;strokeColor=none;fillColor=none;" vertex="1" parent="1">
          <mxGeometry x="1300" y="150" width="180" height="40" as="geometry" />
        </mxCell>
        <mxCell id="Sg_4rNXFZ54ifpU4IuhS-40" value="&lt;font style=&quot;font-size: 25px;&quot;&gt;True&lt;/font&gt;" style="text;html=1;align=center;verticalAlign=middle;resizable=0;points=[];autosize=1;strokeColor=none;fillColor=none;rotation=-30;" vertex="1" parent="1">
          <mxGeometry x="1600" y="110" width="70" height="40" as="geometry" />
        </mxCell>
        <mxCell id="Sg_4rNXFZ54ifpU4IuhS-41" value="&lt;font style=&quot;font-size: 25px;&quot;&gt;False&lt;/font&gt;" style="text;html=1;align=center;verticalAlign=middle;resizable=0;points=[];autosize=1;strokeColor=none;fillColor=none;rotation=15;" vertex="1" parent="1">
          <mxGeometry x="1585" y="240" width="80" height="40" as="geometry" />
        </mxCell>
        <mxCell id="Sg_4rNXFZ54ifpU4IuhS-42" value="" style="endArrow=classic;html=1;rounded=0;" edge="1" parent="1">
          <mxGeometry width="50" height="50" relative="1" as="geometry">
            <mxPoint x="1880" y="270" as="sourcePoint" />
            <mxPoint x="2020" y="170" as="targetPoint" />
          </mxGeometry>
        </mxCell>
        <mxCell id="Sg_4rNXFZ54ifpU4IuhS-43" value="" style="endArrow=classic;html=1;rounded=0;exitX=0.935;exitY=0.256;exitDx=0;exitDy=0;exitPerimeter=0;entryX=0.62;entryY=-0.117;entryDx=0;entryDy=0;entryPerimeter=0;" edge="1" parent="1" source="Sg_4rNXFZ54ifpU4IuhS-8" target="Sg_4rNXFZ54ifpU4IuhS-36">
          <mxGeometry width="50" height="50" relative="1" as="geometry">
            <mxPoint x="1880" y="50" as="sourcePoint" />
            <mxPoint x="2060" y="110" as="targetPoint" />
          </mxGeometry>
        </mxCell>
        <mxCell id="Sg_4rNXFZ54ifpU4IuhS-44" value="" style="endArrow=classic;html=1;rounded=0;entryX=1;entryY=0.5;entryDx=0;entryDy=0;exitX=0.137;exitY=-0.006;exitDx=0;exitDy=0;exitPerimeter=0;" edge="1" parent="1" source="Sg_4rNXFZ54ifpU4IuhS-36" target="Sg_4rNXFZ54ifpU4IuhS-8">
          <mxGeometry width="50" height="50" relative="1" as="geometry">
            <mxPoint x="1920" y="180" as="sourcePoint" />
            <mxPoint x="1970" y="130" as="targetPoint" />
          </mxGeometry>
        </mxCell>
        <mxCell id="Sg_4rNXFZ54ifpU4IuhS-45" value="" style="endArrow=classic;html=1;rounded=0;entryX=0;entryY=0.5;entryDx=0;entryDy=0;" edge="1" parent="1" target="Sg_4rNXFZ54ifpU4IuhS-20">
          <mxGeometry width="50" height="50" relative="1" as="geometry">
            <mxPoint x="1840" y="660" as="sourcePoint" />
            <mxPoint x="1930" y="650" as="targetPoint" />
          </mxGeometry>
        </mxCell>
        <mxCell id="Sg_4rNXFZ54ifpU4IuhS-46" value="" style="endArrow=classic;html=1;rounded=0;exitX=0;exitY=0.5;exitDx=0;exitDy=0;" edge="1" parent="1" source="Sg_4rNXFZ54ifpU4IuhS-19" target="Sg_4rNXFZ54ifpU4IuhS-3">
          <mxGeometry width="50" height="50" relative="1" as="geometry">
            <mxPoint x="1820" y="610" as="sourcePoint" />
            <mxPoint x="1870" y="560" as="targetPoint" />
          </mxGeometry>
        </mxCell>
        <mxCell id="Sg_4rNXFZ54ifpU4IuhS-47" value="" style="endArrow=classic;html=1;rounded=0;exitX=0;exitY=0.25;exitDx=0;exitDy=0;" edge="1" parent="1" source="Sg_4rNXFZ54ifpU4IuhS-21">
          <mxGeometry width="50" height="50" relative="1" as="geometry">
            <mxPoint x="1910" y="635" as="sourcePoint" />
            <mxPoint x="1800" y="713" as="targetPoint" />
          </mxGeometry>
        </mxCell>
        <mxCell id="Sg_4rNXFZ54ifpU4IuhS-48" value="" style="endArrow=classic;html=1;rounded=0;entryX=0.344;entryY=1.153;entryDx=0;entryDy=0;entryPerimeter=0;" edge="1" parent="1" target="Sg_4rNXFZ54ifpU4IuhS-22">
          <mxGeometry width="50" height="50" relative="1" as="geometry">
            <mxPoint x="910" y="760" as="sourcePoint" />
            <mxPoint x="960" y="710" as="targetPoint" />
          </mxGeometry>
        </mxCell>
        <mxCell id="Sg_4rNXFZ54ifpU4IuhS-49" value="" style="endArrow=classic;html=1;rounded=0;entryX=0.332;entryY=-0.024;entryDx=0;entryDy=0;entryPerimeter=0;" edge="1" parent="1" target="Sg_4rNXFZ54ifpU4IuhS-22">
          <mxGeometry width="50" height="50" relative="1" as="geometry">
            <mxPoint x="890" y="460" as="sourcePoint" />
            <mxPoint x="940" y="410" as="targetPoint" />
          </mxGeometry>
        </mxCell>
        <mxCell id="Sg_4rNXFZ54ifpU4IuhS-50" value="" style="endArrow=classic;html=1;rounded=0;entryX=1.019;entryY=0.619;entryDx=0;entryDy=0;entryPerimeter=0;" edge="1" parent="1" target="Sg_4rNXFZ54ifpU4IuhS-5">
          <mxGeometry width="50" height="50" relative="1" as="geometry">
            <mxPoint x="1250" y="650" as="sourcePoint" />
            <mxPoint x="1300" y="600" as="targetPoint" />
          </mxGeometry>
        </mxCell>
        <mxCell id="Sg_4rNXFZ54ifpU4IuhS-51" value="" style="endArrow=classic;html=1;rounded=0;entryX=0;entryY=0;entryDx=0;entryDy=0;" edge="1" parent="1" target="Sg_4rNXFZ54ifpU4IuhS-3">
          <mxGeometry width="50" height="50" relative="1" as="geometry">
            <mxPoint x="910" y="400" as="sourcePoint" />
            <mxPoint x="960" y="350" as="targetPoint" />
          </mxGeometry>
        </mxCell>
        <mxCell id="Sg_4rNXFZ54ifpU4IuhS-52" value="" style="endArrow=classic;html=1;rounded=0;" edge="1" parent="1" target="Sg_4rNXFZ54ifpU4IuhS-3">
          <mxGeometry width="50" height="50" relative="1" as="geometry">
            <mxPoint x="890" y="800" as="sourcePoint" />
            <mxPoint x="1726" y="1016" as="targetPoint" />
          </mxGeometry>
        </mxCell>
        <mxCell id="Sg_4rNXFZ54ifpU4IuhS-54" value="&lt;font style=&quot;font-size: 25px;&quot;&gt;Imported Product&lt;/font&gt;" style="text;html=1;align=center;verticalAlign=middle;resizable=0;points=[];autosize=1;strokeColor=none;fillColor=none;rotation=-15;" vertex="1" parent="1">
          <mxGeometry x="1080" y="770" width="220" height="40" as="geometry" />
        </mxCell>
        <mxCell id="Sg_4rNXFZ54ifpU4IuhS-55" value="&lt;font style=&quot;font-size: 25px;&quot;&gt;Imported Product&lt;/font&gt;" style="text;html=1;align=center;verticalAlign=middle;resizable=0;points=[];autosize=1;strokeColor=none;fillColor=none;rotation=10;" vertex="1" parent="1">
          <mxGeometry x="1230" y="460" width="220" height="40" as="geometry" />
        </mxCell>
        <mxCell id="gl5qupfcSJACFOPlEofR-1" value="&lt;font style=&quot;font-size: 15px;&quot;&gt;2.2&lt;/font&gt;" style="text;html=1;align=center;verticalAlign=middle;resizable=0;points=[];autosize=1;strokeColor=none;fillColor=none;" vertex="1" parent="1">
          <mxGeometry x="345" y="555" width="40" height="30" as="geometry" />
        </mxCell>
        <mxCell id="gl5qupfcSJACFOPlEofR-2" value="&lt;font style=&quot;font-size: 15px;&quot;&gt;2.2.1&lt;/font&gt;" style="text;html=1;align=center;verticalAlign=middle;resizable=0;points=[];autosize=1;strokeColor=none;fillColor=none;" vertex="1" parent="1">
          <mxGeometry x="825" y="360" width="60" height="30" as="geometry" />
        </mxCell>
        <mxCell id="gl5qupfcSJACFOPlEofR-3" value="&lt;font style=&quot;font-size: 15px;&quot;&gt;2.2.1&lt;/font&gt;" style="text;html=1;align=center;verticalAlign=middle;resizable=0;points=[];autosize=1;strokeColor=none;fillColor=none;" vertex="1" parent="1">
          <mxGeometry x="825" y="700" width="60" height="30" as="geometry" />
        </mxCell>
        <mxCell id="gl5qupfcSJACFOPlEofR-4" value="&lt;font style=&quot;font-size: 15px;&quot;&gt;2.2.1&lt;/font&gt;" style="text;html=1;align=center;verticalAlign=middle;resizable=0;points=[];autosize=1;strokeColor=none;fillColor=none;" vertex="1" parent="1">
          <mxGeometry x="1750" y="595" width="60" height="30" as="geometry" />
        </mxCell>
        <mxCell id="gl5qupfcSJACFOPlEofR-5" value="&lt;font style=&quot;font-size: 15px;&quot;&gt;2.1&lt;/font&gt;" style="text;html=1;align=center;verticalAlign=middle;resizable=0;points=[];autosize=1;strokeColor=none;fillColor=none;" vertex="1" parent="1">
          <mxGeometry x="1205" y="130" width="40" height="30" as="geometry" />
        </mxCell>
        <mxCell id="gl5qupfcSJACFOPlEofR-6" value="&lt;font style=&quot;font-size: 15px;&quot;&gt;2.1.1&lt;/font&gt;" style="text;html=1;align=center;verticalAlign=middle;resizable=0;points=[];autosize=1;strokeColor=none;fillColor=none;" vertex="1" parent="1">
          <mxGeometry x="1795" y="220" width="60" height="30" as="geometry" />
        </mxCell>
        <mxCell id="gl5qupfcSJACFOPlEofR-7" value="&lt;font style=&quot;font-size: 15px;&quot;&gt;2.1.1&lt;/font&gt;" style="text;html=1;align=center;verticalAlign=middle;resizable=0;points=[];autosize=1;strokeColor=none;fillColor=none;" vertex="1" parent="1">
          <mxGeometry x="1790" y="20" width="60" height="30" as="geometry" />
        </mxCell>
      </root>
    </mxGraphModel>
  </diagram>
  <diagram id="BGuEM6KGcW8sdj1_3T1b" name="Page-2">
    <mxGraphModel grid="1" page="1" gridSize="10" guides="1" tooltips="1" connect="1" arrows="1" fold="1" pageScale="1" pageWidth="850" pageHeight="1100" math="0" shadow="0">
      <root>
        <mxCell id="0" />
        <mxCell id="1" parent="0" />
        <mxCell id="X8smFsO3iVq1hHwSvVII-1" value="&lt;font style=&quot;font-size: 20px;&quot;&gt;ក. Context diagram&lt;/font&gt;" style="text;whiteSpace=wrap;html=1;" vertex="1" parent="1">
          <mxGeometry x="-160" y="-520" width="260" height="110" as="geometry" />
        </mxCell>
        <mxCell id="X8smFsO3iVq1hHwSvVII-2" value="&lt;font style=&quot;font-size: 20px;&quot;&gt;Computer shop management system&lt;/font&gt;" style="ellipse;whiteSpace=wrap;html=1;" vertex="1" parent="1">
          <mxGeometry x="100" y="-150" width="285" height="190" as="geometry" />
        </mxCell>
        <mxCell id="X8smFsO3iVq1hHwSvVII-3" value="" style="endArrow=classic;html=1;rounded=0;exitX=-0.008;exitY=0.688;exitDx=0;exitDy=0;exitPerimeter=0;" edge="1" parent="1">
          <mxGeometry width="50" height="50" relative="1" as="geometry">
            <mxPoint x="598.3199999999997" y="-29.319999999999936" as="sourcePoint" />
            <mxPoint x="380" y="-30" as="targetPoint" />
          </mxGeometry>
        </mxCell>
        <mxCell id="X8smFsO3iVq1hHwSvVII-4" value="" style="endArrow=classic;html=1;rounded=0;exitX=0;exitY=0.5;exitDx=0;exitDy=0;entryX=0.981;entryY=0.5;entryDx=0;entryDy=0;entryPerimeter=0;" edge="1" parent="1">
          <mxGeometry width="50" height="50" relative="1" as="geometry">
            <mxPoint x="600" y="-80" as="sourcePoint" />
            <mxPoint x="379.86999999999944" y="-80" as="targetPoint" />
          </mxGeometry>
        </mxCell>
        <mxCell id="X8smFsO3iVq1hHwSvVII-5" value="Imported Product" style="text;html=1;align=center;verticalAlign=middle;resizable=0;points=[];autosize=1;strokeColor=none;fillColor=none;" vertex="1" parent="1">
          <mxGeometry x="410" y="-65" width="120" height="30" as="geometry" />
        </mxCell>
        <mxCell id="X8smFsO3iVq1hHwSvVII-6" value="" style="html=1;dashed=0;whiteSpace=wrap;" vertex="1" parent="1">
          <mxGeometry x="-300" y="-122.5" width="230" height="135" as="geometry" />
        </mxCell>
        <mxCell id="X8smFsO3iVq1hHwSvVII-7" value="" style="html=1;dashed=0;whiteSpace=wrap;" vertex="1" parent="1">
          <mxGeometry x="600" y="-122.5" width="240" height="130" as="geometry" />
        </mxCell>
        <mxCell id="X8smFsO3iVq1hHwSvVII-8" value="" style="html=1;dashed=0;whiteSpace=wrap;" vertex="1" parent="1">
          <mxGeometry x="127.5" y="-425" width="232.5" height="135" as="geometry" />
        </mxCell>
        <mxCell id="X8smFsO3iVq1hHwSvVII-9" value="Suplier&#39;s Info" style="text;html=1;align=center;verticalAlign=middle;resizable=0;points=[];autosize=1;strokeColor=none;fillColor=none;" vertex="1" parent="1">
          <mxGeometry x="425" y="-120" width="90" height="30" as="geometry" />
        </mxCell>
        <mxCell id="X8smFsO3iVq1hHwSvVII-10" value="Customer" style="text;html=1;align=center;verticalAlign=middle;whiteSpace=wrap;rounded=0;fontSize=20;" vertex="1" parent="1">
          <mxGeometry x="212.5" y="-370" width="60" height="30" as="geometry" />
        </mxCell>
        <mxCell id="X8smFsO3iVq1hHwSvVII-11" value="&lt;font style=&quot;font-size: 20px;&quot;&gt;Manager&lt;/font&gt;" style="text;html=1;align=center;verticalAlign=middle;resizable=0;points=[];autosize=1;strokeColor=none;fillColor=none;" vertex="1" parent="1">
          <mxGeometry x="-235" y="-72.5" width="100" height="40" as="geometry" />
        </mxCell>
        <mxCell id="X8smFsO3iVq1hHwSvVII-12" value="Suplier" style="text;html=1;align=center;verticalAlign=middle;resizable=0;points=[];autosize=1;strokeColor=none;fillColor=none;fontSize=20;" vertex="1" parent="1">
          <mxGeometry x="675" y="-75" width="90" height="40" as="geometry" />
        </mxCell>
        <mxCell id="X8smFsO3iVq1hHwSvVII-13" value="" style="shape=image;verticalLabelPosition=bottom;labelBackgroundColor=default;verticalAlign=top;aspect=fixed;imageAspect=0;image=data:image/png,iVBORw0KGgoAAAANSUhEUgAAAEcAAAE0CAMAAABJr972AAAAAXNSR0IArs4c6QAAAARnQU1BAACxjwv8YQUAAABjUExURQAAAP///////////////////////////////////////////////////////////////////////////////////////////////////////////////////////////////5pFDaAAAAAgdFJOUwAIEBggKDA4QEhQWGBocHiAh4+Xn6evt7/Hz9ff5+/3v+H4wgAAAAlwSFlzAAAXEQAAFxEByibzPwAABUJJREFUeF7tnNmWojAQhhtpMCJLZNGIQv73f8o5YdEQmZYUnJmennw3dkBKSFJLKkV/fDgcDofD4XD8dTjnzDxGAQA3j1HYSo4QIjaPOTbCi8oWAGR1NE/ZcLgpIT03+iyMOwGNqLtPeTDPLySUwPW4U3/u4waQvvmNZZyB/NHwr3rLhp3EVWt6DaTWXE5oKFQJkB6MAZHeToC93l7K3rgfDgR6eyk+IPR2DXh6ezH15MFSQ+xyIt10FTC6y4Kqm82nJDmJBkBlnl+Kd36qF1DSeqcj6lULwIWqXQM+45zzA2kGfk/YihHSYeSJN8Vr0KwY6idHYBsPmlJN4JQ948Ct4gc28Gl+Yxl3XSsUxHhjKzmp0ggduif8efgs4xlbay52eT9CLdUk93jXx1ifzHM2dHdTF0KC6EN7vBY4q65hLSaxgiVH4N6FPSpWIDpRRfo0GDUQGmeXc3pGBCVA14YSGE0Ed3Je+YZy8sEECqAk28PyoaVTbO3zVnIyMc823tXhcPxEtrIbW9mxeTm19f2M+Hfgwo+MsaQG6j4EsWdXQz5uIZFkQRWkFrOEkhrj3VHoTYGb3lzMJzBJrqXEPAkzlnHUvE0AnPV2QcwjfQCt9iCBRKOfXU6ux/PHlhyT+yrJcknDjx1LVepliIXtCZ7LAyWGHgCrCHhAFtS76QgOvBJC5DE9qv9uuHzLO1y+5UtcvuUNQcILUfFoVb948dMathlZQeJun+lBk9IkcXWxPPOMpVx0E+lCEZSpW3gqaaz2ry6TbyxCpVnOk99PSNsF11dTGMPeGgVA++LKSyA1j72Bz13i2/fQZTayENZxQo3WPNSHDZYd1KA2D/VPa+nh61k5ubWcCnfz0G977Suy2V+232eM5vxN/Do33+G3kwi8Y9cYYfASEqCe9oV3AWrLYe8V7K5bQV8AIOyABSrTK0ZJAVdNkvfaq1gVuIpT1ZsxmZlfWcbnZG8QFdG3K2NW9fcENGdz9CwJWcaPq7yOw+H4n1EJMp5ZesIZ1AoeQGIet6W39Bm1mOhBn/fzxEoT6/hDbLWupEYKJlvJIeSfHUv5TLbISzAjU0Ic92C69CbLEUBTxmMSiZ5HkpO8MZlwbpVK4DC7erInWLNlrnOlJsANIjTEETLI0GzRQ3tWAPfzar3YKn+4lZy9phJr9MLxG/6N/VN7OZHuJDSIeuFwOP5L9gmpFGDE512K91O9HdC+poCXkkpA5WgHx0rMaKqArJOTAE1RtKREreIKnNWlotuSOdjnsXv8oV5ih74ApLLOq/eM9RvR4CiyZ7WlFWyIM/PhMybWgYzxcw3ZJdSpdSk+ujqZcOzfwnpfZuCqXvlSCf5uvENY7xMNxIAUbb9/ts9b+jJhqN5Qt6Nc/o32WCqHoMqiusEvgfOaQpDdcHGUkObOt2Sr+HmreH4rOc/6hErtL5+oz6XjpfJZI7cK1m6z7P3Ip+VkZCLINZrxICTaQ5N4m7zA7k70F1O9yG6Y3XVegDmfqS/WmnKo83BatxNtMug/kTAh+eMe71iN5aqqlKQiilJvJI1FCv3r2SeKF0zVlaOcUDlnkjtVb+beU82MHtTut33AWgO58escrzUL7zjOqWQJlOaxN+RzNUOenBH+NRdgRplqa/tzm428Cuv48D5bmMmt7fN5tk6mmn3arzjNRqb17NN+xXFuO/FgXx8VSNxfthNrwsKJv9bJVJQ6GfVeZKNPRXYlqMW45dDkrJswYdpVEFo/lSJ4vLA+IK2LiHq8dKxu6SjpsZh3LPp/d9FUuilyOBwOh8Ph+Kv8ArMKsgxtY3DLAAAAAElFTkSuQmCC;" vertex="1" parent="1">
          <mxGeometry x="127.5" y="-290" width="29.97" height="130" as="geometry" />
        </mxCell>
        <mxCell id="X8smFsO3iVq1hHwSvVII-14" value="" style="endArrow=classic;html=1;rounded=0;exitX=0.112;exitY=0.989;exitDx=0;exitDy=0;entryX=0.187;entryY=0.117;entryDx=0;entryDy=0;entryPerimeter=0;exitPerimeter=0;" edge="1" parent="1" source="X8smFsO3iVq1hHwSvVII-8" target="X8smFsO3iVq1hHwSvVII-2">
          <mxGeometry width="50" height="50" relative="1" as="geometry">
            <mxPoint x="340.13" y="-160" as="sourcePoint" />
            <mxPoint x="119.99999999999943" y="-160" as="targetPoint" />
          </mxGeometry>
        </mxCell>
        <mxCell id="X8smFsO3iVq1hHwSvVII-15" value="" style="endArrow=classic;html=1;rounded=0;exitX=0.968;exitY=0.984;exitDx=0;exitDy=0;entryX=0.187;entryY=0.117;entryDx=0;entryDy=0;entryPerimeter=0;exitPerimeter=0;" edge="1" parent="1" source="X8smFsO3iVq1hHwSvVII-8">
          <mxGeometry width="50" height="50" relative="1" as="geometry">
            <mxPoint x="350" y="-283" as="sourcePoint" />
            <mxPoint x="350" y="-120" as="targetPoint" />
          </mxGeometry>
        </mxCell>
        <mxCell id="X8smFsO3iVq1hHwSvVII-16" value="" style="endArrow=classic;html=1;rounded=0;" edge="1" parent="1">
          <mxGeometry width="50" height="50" relative="1" as="geometry">
            <mxPoint x="200" y="-150" as="sourcePoint" />
            <mxPoint x="200" y="-290" as="targetPoint" />
          </mxGeometry>
        </mxCell>
        <mxCell id="X8smFsO3iVq1hHwSvVII-17" value="Msg &quot;Not Enought&quot;" style="text;html=1;align=center;verticalAlign=middle;whiteSpace=wrap;rounded=0;rotation=-90;" vertex="1" parent="1">
          <mxGeometry x="127.5" y="-240" width="106.25" height="30" as="geometry" />
        </mxCell>
        <mxCell id="X8smFsO3iVq1hHwSvVII-18" value="" style="endArrow=classic;html=1;rounded=0;entryX=0.666;entryY=0.042;entryDx=0;entryDy=0;entryPerimeter=0;" edge="1" parent="1">
          <mxGeometry width="50" height="50" relative="1" as="geometry">
            <mxPoint x="260" y="-290" as="sourcePoint" />
            <mxPoint x="260.0000000000004" y="-149.99999999999997" as="targetPoint" />
            <Array as="points">
              <mxPoint x="260.19" y="-227.98" />
            </Array>
          </mxGeometry>
        </mxCell>
        <mxCell id="X8smFsO3iVq1hHwSvVII-19" value="" style="endArrow=classic;html=1;rounded=0;exitX=0.737;exitY=0.053;exitDx=0;exitDy=0;exitPerimeter=0;" edge="1" parent="1" source="X8smFsO3iVq1hHwSvVII-2">
          <mxGeometry width="50" height="50" relative="1" as="geometry">
            <mxPoint x="310" y="-150" as="sourcePoint" />
            <mxPoint x="311.4" y="-290" as="targetPoint" />
            <Array as="points">
              <mxPoint x="311.4" y="-240" />
            </Array>
          </mxGeometry>
        </mxCell>
        <mxCell id="X8smFsO3iVq1hHwSvVII-20" value="Prepaid" style="text;html=1;align=center;verticalAlign=middle;whiteSpace=wrap;rounded=0;rotation=-90;" vertex="1" parent="1">
          <mxGeometry x="189.38" y="-240" width="106.25" height="30" as="geometry" />
        </mxCell>
        <mxCell id="X8smFsO3iVq1hHwSvVII-21" value="Invoice" style="text;html=1;align=center;verticalAlign=middle;whiteSpace=wrap;rounded=0;rotation=-90;" vertex="1" parent="1">
          <mxGeometry x="250" y="-230" width="106.25" height="30" as="geometry" />
        </mxCell>
        <mxCell id="X8smFsO3iVq1hHwSvVII-22" value="Owed Amount" style="text;html=1;align=center;verticalAlign=middle;whiteSpace=wrap;rounded=0;rotation=-90;" vertex="1" parent="1">
          <mxGeometry x="290" y="-230" width="106.25" height="30" as="geometry" />
        </mxCell>
        <mxCell id="X8smFsO3iVq1hHwSvVII-23" value="" style="endArrow=classic;html=1;rounded=0;entryX=1.009;entryY=0.576;entryDx=0;entryDy=0;entryPerimeter=0;exitX=0.005;exitY=0.558;exitDx=0;exitDy=0;exitPerimeter=0;" edge="1" parent="1">
          <mxGeometry width="50" height="50" relative="1" as="geometry">
            <mxPoint x="99.35500000000019" y="-49.66999999999979" as="sourcePoint" />
            <mxPoint x="-69.99999999999983" y="-50.43000000000001" as="targetPoint" />
          </mxGeometry>
        </mxCell>
        <mxCell id="X8smFsO3iVq1hHwSvVII-24" value="" style="endArrow=classic;html=1;rounded=0;entryX=1.009;entryY=0.576;entryDx=0;entryDy=0;entryPerimeter=0;exitX=0.032;exitY=0.687;exitDx=0;exitDy=0;exitPerimeter=0;" edge="1" parent="1" source="X8smFsO3iVq1hHwSvVII-2">
          <mxGeometry width="50" height="50" relative="1" as="geometry">
            <mxPoint x="100" y="-19" as="sourcePoint" />
            <mxPoint x="-69" y="-20" as="targetPoint" />
          </mxGeometry>
        </mxCell>
        <mxCell id="X8smFsO3iVq1hHwSvVII-25" value="" style="endArrow=classic;html=1;rounded=0;entryX=1.009;entryY=0.576;entryDx=0;entryDy=0;entryPerimeter=0;exitX=0;exitY=1;exitDx=0;exitDy=0;" edge="1" parent="1" source="X8smFsO3iVq1hHwSvVII-2">
          <mxGeometry width="50" height="50" relative="1" as="geometry">
            <mxPoint x="100" y="12.5" as="sourcePoint" />
            <mxPoint x="-69" y="11.5" as="targetPoint" />
          </mxGeometry>
        </mxCell>
        <mxCell id="X8smFsO3iVq1hHwSvVII-26" value="" style="endArrow=classic;html=1;rounded=0;entryX=0.01;entryY=0.385;entryDx=0;entryDy=0;entryPerimeter=0;exitX=1.005;exitY=0.333;exitDx=0;exitDy=0;exitPerimeter=0;" edge="1" parent="1" source="X8smFsO3iVq1hHwSvVII-6" target="X8smFsO3iVq1hHwSvVII-2">
          <mxGeometry width="50" height="50" relative="1" as="geometry">
            <mxPoint x="-40" y="-72.5" as="sourcePoint" />
            <mxPoint x="-40" y="-212.5" as="targetPoint" />
          </mxGeometry>
        </mxCell>
        <mxCell id="X8smFsO3iVq1hHwSvVII-27" value="" style="endArrow=classic;html=1;rounded=0;entryX=0.065;entryY=0.235;entryDx=0;entryDy=0;entryPerimeter=0;exitX=1.005;exitY=0.333;exitDx=0;exitDy=0;exitPerimeter=0;" edge="1" parent="1" target="X8smFsO3iVq1hHwSvVII-2">
          <mxGeometry width="50" height="50" relative="1" as="geometry">
            <mxPoint x="-70" y="-106" as="sourcePoint" />
            <mxPoint x="100" y="-104" as="targetPoint" />
          </mxGeometry>
        </mxCell>
        <mxCell id="X8smFsO3iVq1hHwSvVII-28" value="Staff&#39;s Info" style="text;html=1;align=center;verticalAlign=middle;whiteSpace=wrap;rounded=0;" vertex="1" parent="1">
          <mxGeometry x="-20" y="-130" width="60" height="30" as="geometry" />
        </mxCell>
        <mxCell id="X8smFsO3iVq1hHwSvVII-29" value="Set&amp;nbsp; Product&#39;s Price" style="text;html=1;align=center;verticalAlign=middle;whiteSpace=wrap;rounded=0;" vertex="1" parent="1">
          <mxGeometry x="-40" y="-100" width="110" height="30" as="geometry" />
        </mxCell>
        <mxCell id="X8smFsO3iVq1hHwSvVII-30" value="Salary&#39;s&amp;nbsp; Report" style="text;html=1;align=center;verticalAlign=middle;whiteSpace=wrap;rounded=0;" vertex="1" parent="1">
          <mxGeometry x="-40" y="-72.5" width="110" height="30" as="geometry" />
        </mxCell>
        <mxCell id="X8smFsO3iVq1hHwSvVII-31" value="Sale&#39;s Report" style="text;html=1;align=center;verticalAlign=middle;whiteSpace=wrap;rounded=0;" vertex="1" parent="1">
          <mxGeometry x="-40" y="-42.5" width="110" height="30" as="geometry" />
        </mxCell>
        <mxCell id="X8smFsO3iVq1hHwSvVII-32" value="Import&#39;s Report" style="text;html=1;align=center;verticalAlign=middle;resizable=0;points=[];autosize=1;strokeColor=none;fillColor=none;" vertex="1" parent="1">
          <mxGeometry x="-45" y="-17.5" width="110" height="30" as="geometry" />
        </mxCell>
      </root>
    </mxGraphModel>
  </diagram>
  <diagram id="sJ1lw264ZYZww-d-Fjys" name="Page-3">
    <mxGraphModel grid="1" page="1" gridSize="10" guides="1" tooltips="1" connect="1" arrows="1" fold="1" pageScale="1" pageWidth="850" pageHeight="1100" math="0" shadow="0">
      <root>
        <mxCell id="0" />
        <mxCell id="1" parent="0" />
        <mxCell id="YY_XWR3Gf9DKqIitaSfU-1" value="&lt;font style=&quot;font-size: 20px;&quot;&gt;ខ. Top Level Diagram&lt;/font&gt;" style="text;html=1;align=center;verticalAlign=middle;resizable=0;points=[];autosize=1;strokeColor=none;fillColor=none;" vertex="1" parent="1">
          <mxGeometry x="-160" y="160" width="220" height="40" as="geometry" />
        </mxCell>
        <mxCell id="YY_XWR3Gf9DKqIitaSfU-2" value="&lt;font style=&quot;font-size: 20px;&quot;&gt;Manager&lt;/font&gt;" style="html=1;dashed=0;whiteSpace=wrap;" vertex="1" parent="1">
          <mxGeometry x="170" y="325" width="270" height="100" as="geometry" />
        </mxCell>
        <mxCell id="YY_XWR3Gf9DKqIitaSfU-3" value="Import&lt;div&gt;Management System&lt;/div&gt;&lt;div&gt;&lt;br&gt;&lt;/div&gt;" style="shape=ellipse;html=1;dashed=0;whiteSpace=wrap;aspect=fixed;perimeter=ellipsePerimeter;" vertex="1" parent="1">
          <mxGeometry x="225" y="640" width="160" height="160" as="geometry" />
        </mxCell>
        <mxCell id="YY_XWR3Gf9DKqIitaSfU-4" value="Staff&lt;div&gt;Management System&lt;/div&gt;" style="shape=ellipse;html=1;dashed=0;whiteSpace=wrap;aspect=fixed;perimeter=ellipsePerimeter;" vertex="1" parent="1">
          <mxGeometry x="-280" y="640" width="160" height="160" as="geometry" />
        </mxCell>
        <mxCell id="YY_XWR3Gf9DKqIitaSfU-5" value="SALE&amp;nbsp;&lt;div&gt;Management&amp;nbsp; System&lt;div&gt;&lt;br&gt;&lt;/div&gt;&lt;/div&gt;" style="shape=ellipse;html=1;dashed=0;whiteSpace=wrap;aspect=fixed;perimeter=ellipsePerimeter;" vertex="1" parent="1">
          <mxGeometry x="750" y="630" width="160" height="160" as="geometry" />
        </mxCell>
        <mxCell id="YY_XWR3Gf9DKqIitaSfU-6" value="&lt;div&gt;&lt;span style=&quot;font-size: 20px;&quot;&gt;Suplier&lt;/span&gt;&lt;/div&gt;" style="html=1;dashed=0;whiteSpace=wrap;" vertex="1" parent="1">
          <mxGeometry x="170" y="990" width="270" height="100" as="geometry" />
        </mxCell>
        <mxCell id="YY_XWR3Gf9DKqIitaSfU-7" value="&lt;span style=&quot;font-size: 20px;&quot;&gt;Customer&lt;/span&gt;" style="html=1;dashed=0;whiteSpace=wrap;" vertex="1" parent="1">
          <mxGeometry x="720" y="980" width="270" height="100" as="geometry" />
        </mxCell>
        <mxCell id="YY_XWR3Gf9DKqIitaSfU-8" value="Staff" style="html=1;dashed=0;whiteSpace=wrap;shape=partialRectangle;right=0;left=0;" vertex="1" parent="1">
          <mxGeometry x="-250" y="880" width="100" height="30" as="geometry" />
        </mxCell>
        <mxCell id="YY_XWR3Gf9DKqIitaSfU-9" value="Import" style="html=1;dashed=0;whiteSpace=wrap;shape=partialRectangle;right=0;left=0;" vertex="1" parent="1">
          <mxGeometry x="10" y="600" width="100" height="30" as="geometry" />
        </mxCell>
        <mxCell id="YY_XWR3Gf9DKqIitaSfU-10" value="Staff" style="html=1;dashed=0;whiteSpace=wrap;shape=partialRectangle;right=0;left=0;" vertex="1" parent="1">
          <mxGeometry x="10" y="650" width="100" height="30" as="geometry" />
        </mxCell>
        <mxCell id="YY_XWR3Gf9DKqIitaSfU-11" value="Suplier" style="html=1;dashed=0;whiteSpace=wrap;shape=partialRectangle;right=0;left=0;" vertex="1" parent="1">
          <mxGeometry x="10" y="705" width="100" height="30" as="geometry" />
        </mxCell>
        <mxCell id="YY_XWR3Gf9DKqIitaSfU-12" value="Payment" style="html=1;dashed=0;whiteSpace=wrap;shape=partialRectangle;right=0;left=0;" vertex="1" parent="1">
          <mxGeometry x="530" y="600" width="100" height="30" as="geometry" />
        </mxCell>
        <mxCell id="YY_XWR3Gf9DKqIitaSfU-13" value="Customer" style="html=1;dashed=0;whiteSpace=wrap;shape=partialRectangle;right=0;left=0;" vertex="1" parent="1">
          <mxGeometry x="530" y="650" width="100" height="30" as="geometry" />
        </mxCell>
        <mxCell id="YY_XWR3Gf9DKqIitaSfU-14" value="Prodcut" style="html=1;dashed=0;whiteSpace=wrap;shape=partialRectangle;right=0;left=0;" vertex="1" parent="1">
          <mxGeometry x="530" y="705" width="100" height="30" as="geometry" />
        </mxCell>
        <mxCell id="YY_XWR3Gf9DKqIitaSfU-15" value="Order" style="html=1;dashed=0;whiteSpace=wrap;shape=partialRectangle;right=0;left=0;" vertex="1" parent="1">
          <mxGeometry x="530" y="760" width="100" height="30" as="geometry" />
        </mxCell>
        <mxCell id="YY_XWR3Gf9DKqIitaSfU-16" value="Staff" style="html=1;dashed=0;whiteSpace=wrap;shape=partialRectangle;right=0;left=0;" vertex="1" parent="1">
          <mxGeometry x="960" y="590" width="100" height="30" as="geometry" />
        </mxCell>
        <mxCell id="YY_XWR3Gf9DKqIitaSfU-17" value="" style="shape=image;verticalLabelPosition=bottom;labelBackgroundColor=default;verticalAlign=top;aspect=fixed;imageAspect=0;image=data:image/png,iVBORw0KGgoAAAANSUhEUgAAASUAAAB2CAMAAAC51HWoAAAAAXNSR0IArs4c6QAAAARnQU1BAACxjwv8YQUAAABjUExURQAAAJ+fn5+fn5+fn6enp6ampqWlpaSkpKOjo6Ojo6ampqWlpaWlpaSkpKSkpKSkpKWlpaampqampqWlpaWlpaWlpaWlpaampqampqWlpaWlpaWlpaWlpaampqWlpaWlpaWlpRQQmyMAAAAgdFJOUwAIEBggKDA4QEhQWGBocHiAh4+Xn6evt7/Hz9ff5+/3v+H4wgAAAAlwSFlzAAAXEQAAFxEByibzPwAAAmpJREFUeF7t3Nlu6jAURuGMTEkKFCiUKX7/pzyCOLaPq279t5XWd1XhXFlpu5rUuygAAAAAAH9es1rvdufLKv8cb4vd/nJ5uslY5suYHP0OvRzzRcySbeIb7lfled6kZ5uvIYjb5K5Dla/CK69hm5w7dfkyJtV7m26n8b1Pz8MivwAv1d05NxRV/z3dULdtk1+Comjubnz/SGp2rw1zzp174umH5nGav1wep8ocj+v/r0GxSLak7L6mG+q+Jw4s9cdt2qhv4sDUfj6mjSIObBsfBw/iwJTEQZ2vIUEciFYhDnhsYCk7/zcxcWAjDkTtgTiQEAeaaiAOJMSBiDjQJHHAMzsLcSBahDjY5EtIbU7TPhEHthgHH8SBpdkTB5I5Dp7EgansiQMJcSAiDkQdcSAhDkQtcaBZHf1/+xAHphgHO+LAUm+JA8kcByNxYItxwAs9C3EginHQEQeWNXEgIQ5EDXGgWRz8Cz3iwEYcaKrBn4EhDmzEgYg40BAHohgHPXFgWRIHmhAHn8SBpSYONO3ev9D7Ig5MMQ6W+RISZX+ZbijiwEYciIgD0XyImDiwEQeicIiYOLARB5qKONA0W//M7kIcmGIcMGHERBxoYhwMxIGFOBCtw/gx4sBCHIjCIWLiwEYcaML4MeLAVg/+mR1xYCMORMSBJsYBs0lNxIGI2aQa4kAUDhFfiQNTEgf5ElLz+DHiwBZmkxIHNuJARBxowvgx4sBGHIjCbFLiwEYcaMIhYuLAlsQBz+wscTYpcWCJccDgchNxIGJwuWieTUoc2JLB5fzOs/jZpLf8c2RecbDNP8QPZV8X/wB8WHQLBFABrwAAAABJRU5ErkJggg==;rotation=0;" vertex="1" parent="1">
          <mxGeometry x="100" y="600" width="148.98" height="60" as="geometry" />
        </mxCell>
        <mxCell id="YY_XWR3Gf9DKqIitaSfU-18" value="" style="endArrow=classic;html=1;rounded=0;entryX=0.094;entryY=0.188;entryDx=0;entryDy=0;entryPerimeter=0;" edge="1" parent="1" target="YY_XWR3Gf9DKqIitaSfU-3">
          <mxGeometry width="50" height="50" relative="1" as="geometry">
            <mxPoint x="110" y="619.36" as="sourcePoint" />
            <mxPoint x="218.20000000000027" y="649.9999999999999" as="targetPoint" />
          </mxGeometry>
        </mxCell>
        <mxCell id="YY_XWR3Gf9DKqIitaSfU-19" value="" style="endArrow=classic;html=1;rounded=0;entryX=0.007;entryY=0.463;entryDx=0;entryDy=0;entryPerimeter=0;" edge="1" parent="1" target="YY_XWR3Gf9DKqIitaSfU-5">
          <mxGeometry width="50" height="50" relative="1" as="geometry">
            <mxPoint x="630" y="660" as="sourcePoint" />
            <mxPoint x="755.6399999999999" y="708.6800000000002" as="targetPoint" />
          </mxGeometry>
        </mxCell>
        <mxCell id="YY_XWR3Gf9DKqIitaSfU-20" value="" style="endArrow=classic;html=1;rounded=0;entryX=0.004;entryY=0.47;entryDx=0;entryDy=0;entryPerimeter=0;" edge="1" parent="1" target="YY_XWR3Gf9DKqIitaSfU-3">
          <mxGeometry width="50" height="50" relative="1" as="geometry">
            <mxPoint x="109.49" y="670" as="sourcePoint" />
            <mxPoint x="239.49" y="720.64" as="targetPoint" />
          </mxGeometry>
        </mxCell>
        <mxCell id="YY_XWR3Gf9DKqIitaSfU-21" value="" style="endArrow=classic;html=1;rounded=0;entryX=0;entryY=0.554;entryDx=0;entryDy=0;entryPerimeter=0;exitX=1;exitY=0.25;exitDx=0;exitDy=0;" edge="1" parent="1" source="YY_XWR3Gf9DKqIitaSfU-11" target="YY_XWR3Gf9DKqIitaSfU-3">
          <mxGeometry width="50" height="50" relative="1" as="geometry">
            <mxPoint x="100" y="711.36" as="sourcePoint" />
            <mxPoint x="226" y="760" as="targetPoint" />
          </mxGeometry>
        </mxCell>
        <mxCell id="YY_XWR3Gf9DKqIitaSfU-22" value="" style="endArrow=classic;html=1;rounded=0;entryX=0.024;entryY=0.619;entryDx=0;entryDy=0;entryPerimeter=0;exitX=0.027;exitY=0.694;exitDx=0;exitDy=0;exitPerimeter=0;" edge="1" parent="1" source="YY_XWR3Gf9DKqIitaSfU-3">
          <mxGeometry width="50" height="50" relative="1" as="geometry">
            <mxPoint x="241" y="754" as="sourcePoint" />
            <mxPoint x="110" y="730" as="targetPoint" />
          </mxGeometry>
        </mxCell>
        <mxCell id="YY_XWR3Gf9DKqIitaSfU-23" value="" style="endArrow=classic;html=1;rounded=0;entryX=0.375;entryY=0.989;entryDx=0;entryDy=0;entryPerimeter=0;exitX=0.293;exitY=-0.098;exitDx=0;exitDy=0;exitPerimeter=0;" edge="1" parent="1" source="YY_XWR3Gf9DKqIitaSfU-8" target="YY_XWR3Gf9DKqIitaSfU-4">
          <mxGeometry width="50" height="50" relative="1" as="geometry">
            <mxPoint x="-220.00000000000023" y="870" as="sourcePoint" />
            <mxPoint x="-220" y="810" as="targetPoint" />
          </mxGeometry>
        </mxCell>
        <mxCell id="YY_XWR3Gf9DKqIitaSfU-24" value="" style="endArrow=classic;html=1;rounded=0;exitX=0.293;exitY=-0.098;exitDx=0;exitDy=0;exitPerimeter=0;" edge="1" parent="1">
          <mxGeometry width="50" height="50" relative="1" as="geometry">
            <mxPoint x="-190" y="800" as="sourcePoint" />
            <mxPoint x="-190" y="880" as="targetPoint" />
          </mxGeometry>
        </mxCell>
        <mxCell id="YY_XWR3Gf9DKqIitaSfU-25" value="" style="endArrow=classic;html=1;rounded=0;exitX=0.32;exitY=0.015;exitDx=0;exitDy=0;exitPerimeter=0;entryX=0.207;entryY=0.906;entryDx=0;entryDy=0;entryPerimeter=0;" edge="1" parent="1" source="YY_XWR3Gf9DKqIitaSfU-6" target="YY_XWR3Gf9DKqIitaSfU-3">
          <mxGeometry width="50" height="50" relative="1" as="geometry">
            <mxPoint x="261.84999999999945" y="988.7" as="sourcePoint" />
            <mxPoint x="260" y="801.3" as="targetPoint" />
          </mxGeometry>
        </mxCell>
        <mxCell id="YY_XWR3Gf9DKqIitaSfU-26" value="" style="endArrow=classic;html=1;rounded=0;exitX=0.32;exitY=0.015;exitDx=0;exitDy=0;exitPerimeter=0;entryX=0.207;entryY=0.906;entryDx=0;entryDy=0;entryPerimeter=0;" edge="1" parent="1">
          <mxGeometry width="50" height="50" relative="1" as="geometry">
            <mxPoint x="350" y="990" as="sourcePoint" />
            <mxPoint x="352" y="783" as="targetPoint" />
          </mxGeometry>
        </mxCell>
        <mxCell id="YY_XWR3Gf9DKqIitaSfU-27" value="Suplier&#39;s Info" style="text;html=1;align=center;verticalAlign=middle;whiteSpace=wrap;rounded=0;rotation=-90;" vertex="1" parent="1">
          <mxGeometry x="190" y="880" width="90" height="30" as="geometry" />
        </mxCell>
        <mxCell id="YY_XWR3Gf9DKqIitaSfU-28" value="imported Product" style="text;html=1;align=center;verticalAlign=middle;whiteSpace=wrap;rounded=0;rotation=-90;" vertex="1" parent="1">
          <mxGeometry x="275" y="870" width="110" height="30" as="geometry" />
        </mxCell>
        <mxCell id="YY_XWR3Gf9DKqIitaSfU-29" value="" style="endArrow=classic;html=1;rounded=0;exitX=0.32;exitY=0.015;exitDx=0;exitDy=0;exitPerimeter=0;entryX=0.207;entryY=0.906;entryDx=0;entryDy=0;entryPerimeter=0;" edge="1" parent="1">
          <mxGeometry width="50" height="50" relative="1" as="geometry">
            <mxPoint x="300" y="640" as="sourcePoint" />
            <mxPoint x="302" y="433" as="targetPoint" />
          </mxGeometry>
        </mxCell>
        <mxCell id="YY_XWR3Gf9DKqIitaSfU-30" value="Imported Report" style="text;html=1;align=center;verticalAlign=middle;whiteSpace=wrap;rounded=0;rotation=-90;" vertex="1" parent="1">
          <mxGeometry x="225" y="520" width="90" height="30" as="geometry" />
        </mxCell>
        <mxCell id="YY_XWR3Gf9DKqIitaSfU-31" value="" style="endArrow=classic;html=1;rounded=0;" edge="1" parent="1">
          <mxGeometry width="50" height="50" relative="1" as="geometry">
            <mxPoint x="520" y="720" as="sourcePoint" />
            <mxPoint x="390" y="720" as="targetPoint" />
          </mxGeometry>
        </mxCell>
        <mxCell id="YY_XWR3Gf9DKqIitaSfU-32" value="" style="endArrow=classic;html=1;rounded=0;entryX=0;entryY=1;entryDx=0;entryDy=0;" edge="1" parent="1" target="YY_XWR3Gf9DKqIitaSfU-14">
          <mxGeometry width="50" height="50" relative="1" as="geometry">
            <mxPoint x="390" y="735" as="sourcePoint" />
            <mxPoint x="401" y="721" as="targetPoint" />
          </mxGeometry>
        </mxCell>
        <mxCell id="YY_XWR3Gf9DKqIitaSfU-33" value="" style="endArrow=classic;html=1;rounded=0;entryX=0.094;entryY=0.188;entryDx=0;entryDy=0;entryPerimeter=0;" edge="1" parent="1">
          <mxGeometry width="50" height="50" relative="1" as="geometry">
            <mxPoint x="630" y="609.36" as="sourcePoint" />
            <mxPoint x="760" y="660" as="targetPoint" />
          </mxGeometry>
        </mxCell>
        <mxCell id="YY_XWR3Gf9DKqIitaSfU-34" value="" style="endArrow=classic;html=1;rounded=0;entryX=0.024;entryY=0.619;entryDx=0;entryDy=0;entryPerimeter=0;exitX=0.063;exitY=0.25;exitDx=0;exitDy=0;exitPerimeter=0;" edge="1" parent="1" source="YY_XWR3Gf9DKqIitaSfU-5">
          <mxGeometry width="50" height="50" relative="1" as="geometry">
            <mxPoint x="739" y="661" as="sourcePoint" />
            <mxPoint x="630" y="620" as="targetPoint" />
          </mxGeometry>
        </mxCell>
        <mxCell id="YY_XWR3Gf9DKqIitaSfU-35" value="" style="endArrow=classic;html=1;rounded=0;entryX=1;entryY=0.75;entryDx=0;entryDy=0;exitX=0.063;exitY=0.25;exitDx=0;exitDy=0;exitPerimeter=0;" edge="1" parent="1" target="YY_XWR3Gf9DKqIitaSfU-13">
          <mxGeometry width="50" height="50" relative="1" as="geometry">
            <mxPoint x="750" y="720" as="sourcePoint" />
            <mxPoint x="620" y="670" as="targetPoint" />
          </mxGeometry>
        </mxCell>
        <mxCell id="YY_XWR3Gf9DKqIitaSfU-36" value="" style="endArrow=classic;html=1;rounded=0;entryX=0.024;entryY=0.619;entryDx=0;entryDy=0;entryPerimeter=0;exitX=0.188;exitY=0.909;exitDx=0;exitDy=0;exitPerimeter=0;fontStyle=1" edge="1" parent="1">
          <mxGeometry width="50" height="50" relative="1" as="geometry">
            <mxPoint x="780.0799999999999" y="780.0000000000002" as="sourcePoint" />
            <mxPoint x="630" y="780.0799999999999" as="targetPoint" />
          </mxGeometry>
        </mxCell>
        <mxCell id="YY_XWR3Gf9DKqIitaSfU-37" value="" style="endArrow=classic;html=1;rounded=0;entryX=0.024;entryY=0.619;entryDx=0;entryDy=0;entryPerimeter=0;exitX=0.002;exitY=0.591;exitDx=0;exitDy=0;exitPerimeter=0;" edge="1" parent="1" source="YY_XWR3Gf9DKqIitaSfU-5">
          <mxGeometry width="50" height="50" relative="1" as="geometry">
            <mxPoint x="760" y="770" as="sourcePoint" />
            <mxPoint x="630" y="720" as="targetPoint" />
          </mxGeometry>
        </mxCell>
        <mxCell id="YY_XWR3Gf9DKqIitaSfU-38" value="" style="endArrow=classic;html=1;rounded=0;entryX=0.027;entryY=0.651;entryDx=0;entryDy=0;entryPerimeter=0;" edge="1" parent="1" target="YY_XWR3Gf9DKqIitaSfU-5">
          <mxGeometry width="50" height="50" relative="1" as="geometry">
            <mxPoint x="630" y="730" as="sourcePoint" />
            <mxPoint x="751" y="774" as="targetPoint" />
          </mxGeometry>
        </mxCell>
        <mxCell id="YY_XWR3Gf9DKqIitaSfU-39" value="" style="endArrow=classic;html=1;rounded=0;entryX=0;entryY=1;entryDx=0;entryDy=0;" edge="1" parent="1" target="YY_XWR3Gf9DKqIitaSfU-5">
          <mxGeometry width="50" height="50" relative="1" as="geometry">
            <mxPoint x="630" y="770" as="sourcePoint" />
            <mxPoint x="754" y="774" as="targetPoint" />
          </mxGeometry>
        </mxCell>
        <mxCell id="YY_XWR3Gf9DKqIitaSfU-40" value="" style="endArrow=classic;html=1;rounded=0;" edge="1" parent="1">
          <mxGeometry width="50" height="50" relative="1" as="geometry">
            <mxPoint x="-240" y="350" as="sourcePoint" />
            <mxPoint x="-240" y="640" as="targetPoint" />
            <Array as="points">
              <mxPoint x="170" y="350" />
              <mxPoint x="-240" y="350" />
            </Array>
          </mxGeometry>
        </mxCell>
        <mxCell id="YY_XWR3Gf9DKqIitaSfU-41" value="" style="endArrow=classic;html=1;rounded=0;" edge="1" parent="1">
          <mxGeometry width="50" height="50" relative="1" as="geometry">
            <mxPoint x="953.43" y="610" as="sourcePoint" />
            <mxPoint x="899.998542494936" y="663.4314575050639" as="targetPoint" />
          </mxGeometry>
        </mxCell>
        <mxCell id="YY_XWR3Gf9DKqIitaSfU-42" value="" style="endArrow=classic;html=1;rounded=0;entryX=0;entryY=0.75;entryDx=0;entryDy=0;" edge="1" parent="1" target="YY_XWR3Gf9DKqIitaSfU-2">
          <mxGeometry width="50" height="50" relative="1" as="geometry">
            <mxPoint x="-200" y="630" as="sourcePoint" />
            <mxPoint x="150" y="400" as="targetPoint" />
            <Array as="points">
              <mxPoint x="-200" y="400" />
            </Array>
          </mxGeometry>
        </mxCell>
        <mxCell id="YY_XWR3Gf9DKqIitaSfU-43" value="" style="endArrow=classic;html=1;rounded=0;entryX=1;entryY=0.75;entryDx=0;entryDy=0;" edge="1" parent="1" target="YY_XWR3Gf9DKqIitaSfU-2">
          <mxGeometry width="50" height="50" relative="1" as="geometry">
            <mxPoint x="790" y="630" as="sourcePoint" />
            <mxPoint x="1160" y="400" as="targetPoint" />
            <Array as="points">
              <mxPoint x="790" y="400" />
            </Array>
          </mxGeometry>
        </mxCell>
        <mxCell id="YY_XWR3Gf9DKqIitaSfU-44" value="" style="endArrow=classic;html=1;rounded=0;" edge="1" parent="1">
          <mxGeometry width="50" height="50" relative="1" as="geometry">
            <mxPoint x="840" y="340" as="sourcePoint" />
            <mxPoint x="840" y="630" as="targetPoint" />
            <Array as="points">
              <mxPoint x="440" y="340" />
              <mxPoint x="840" y="340" />
            </Array>
          </mxGeometry>
        </mxCell>
        <mxCell id="YY_XWR3Gf9DKqIitaSfU-45" value="" style="endArrow=classic;html=1;rounded=0;entryX=0.631;entryY=1.008;entryDx=0;entryDy=0;entryPerimeter=0;fontStyle=1;exitX=0.694;exitY=-0.037;exitDx=0;exitDy=0;exitPerimeter=0;" edge="1" parent="1" source="YY_XWR3Gf9DKqIitaSfU-7">
          <mxGeometry width="50" height="50" relative="1" as="geometry">
            <mxPoint x="910" y="970" as="sourcePoint" />
            <mxPoint x="879.9999999999995" y="780" as="targetPoint" />
          </mxGeometry>
        </mxCell>
        <mxCell id="YY_XWR3Gf9DKqIitaSfU-46" value="" style="endArrow=classic;html=1;rounded=0;entryX=0.5;entryY=0;entryDx=0;entryDy=0;" edge="1" parent="1" target="YY_XWR3Gf9DKqIitaSfU-7">
          <mxGeometry width="50" height="50" relative="1" as="geometry">
            <mxPoint x="846" y="790" as="sourcePoint" />
            <mxPoint x="860" y="970" as="targetPoint" />
          </mxGeometry>
        </mxCell>
        <mxCell id="rs_CFY3-zqZupF4UwYoz-1" value="" style="endArrow=classic;html=1;rounded=0;entryX=0.331;entryY=0.975;entryDx=0;entryDy=0;entryPerimeter=0;fontStyle=1;" edge="1" parent="1">
          <mxGeometry width="50" height="50" relative="1" as="geometry">
            <mxPoint x="810" y="980" as="sourcePoint" />
            <mxPoint x="812.96" y="786" as="targetPoint" />
          </mxGeometry>
        </mxCell>
        <mxCell id="rs_CFY3-zqZupF4UwYoz-4" value="Pre_piad" style="edgeLabel;html=1;align=center;verticalAlign=middle;resizable=0;points=[];rotation=-92;" connectable="0" vertex="1" parent="rs_CFY3-zqZupF4UwYoz-1">
          <mxGeometry x="-0.6955" y="3" relative="1" as="geometry">
            <mxPoint x="-7" y="-81" as="offset" />
          </mxGeometry>
        </mxCell>
        <mxCell id="rs_CFY3-zqZupF4UwYoz-2" value="" style="endArrow=classic;html=1;rounded=0;entryX=0.331;entryY=0.975;entryDx=0;entryDy=0;entryPerimeter=0;fontStyle=1;exitX=0.219;exitY=-0.04;exitDx=0;exitDy=0;exitPerimeter=0;" edge="1" parent="1" source="YY_XWR3Gf9DKqIitaSfU-7">
          <mxGeometry width="50" height="50" relative="1" as="geometry">
            <mxPoint x="780" y="974" as="sourcePoint" />
            <mxPoint x="783" y="780" as="targetPoint" />
          </mxGeometry>
        </mxCell>
        <mxCell id="rs_CFY3-zqZupF4UwYoz-3" value="Cus In., Ord Pr." style="text;html=1;align=center;verticalAlign=middle;whiteSpace=wrap;rounded=0;rotation=-90;" vertex="1" parent="1">
          <mxGeometry x="710" y="860" width="100" height="30" as="geometry" />
        </mxCell>
        <mxCell id="rs_CFY3-zqZupF4UwYoz-5" value="Invoice" style="edgeLabel;html=1;align=center;verticalAlign=middle;resizable=0;points=[];rotation=-92;" connectable="0" vertex="1" parent="1">
          <mxGeometry x="810.4484928523771" y="879.5826507605523" as="geometry">
            <mxPoint x="3.0552768971088633" y="27.12315031632559" as="offset" />
          </mxGeometry>
        </mxCell>
        <mxCell id="rs_CFY3-zqZupF4UwYoz-6" value="Owned&amp;nbsp; Amount" style="text;html=1;align=center;verticalAlign=middle;resizable=0;points=[];autosize=1;strokeColor=none;fillColor=none;rotation=-95;" vertex="1" parent="1">
          <mxGeometry x="820" y="850" width="110" height="30" as="geometry" />
        </mxCell>
        <mxCell id="rs_CFY3-zqZupF4UwYoz-8" value="" style="endArrow=classic;html=1;rounded=0;exitX=0.983;exitY=0.66;exitDx=0;exitDy=0;exitPerimeter=0;entryX=1;entryY=0.5;entryDx=0;entryDy=0;" edge="1" parent="1" target="YY_XWR3Gf9DKqIitaSfU-7">
          <mxGeometry width="50" height="50" relative="1" as="geometry">
            <mxPoint x="907.2799999999997" y="727.3799999999999" as="sourcePoint" />
            <mxPoint x="1090" y="1031.78" as="targetPoint" />
            <Array as="points">
              <mxPoint x="1090" y="727.78" />
              <mxPoint x="1110" y="1032" />
              <mxPoint x="990" y="1030" />
            </Array>
          </mxGeometry>
        </mxCell>
        <mxCell id="rs_CFY3-zqZupF4UwYoz-9" value="Msg &quot;Not enough&quot;" style="text;html=1;align=center;verticalAlign=middle;resizable=0;points=[];autosize=1;strokeColor=none;fillColor=none;rotation=175;" vertex="1" parent="1">
          <mxGeometry x="1060" y="850" width="120" height="30" as="geometry" />
        </mxCell>
        <mxCell id="rs_CFY3-zqZupF4UwYoz-10" value="Staff&#39;s Info" style="text;html=1;align=center;verticalAlign=middle;resizable=0;points=[];autosize=1;strokeColor=none;fillColor=none;" vertex="1" parent="1">
          <mxGeometry x="-70" y="318" width="80" height="30" as="geometry" />
        </mxCell>
        <mxCell id="rs_CFY3-zqZupF4UwYoz-11" value="Salary&#39;s Report" style="text;html=1;align=center;verticalAlign=middle;resizable=0;points=[];autosize=1;strokeColor=none;fillColor=none;" vertex="1" parent="1">
          <mxGeometry x="-95" y="398" width="110" height="30" as="geometry" />
        </mxCell>
        <mxCell id="rs_CFY3-zqZupF4UwYoz-12" value="Set Product&#39;s Price" style="text;html=1;align=center;verticalAlign=middle;resizable=0;points=[];autosize=1;strokeColor=none;fillColor=none;" vertex="1" parent="1">
          <mxGeometry x="515" y="308" width="130" height="30" as="geometry" />
        </mxCell>
        <mxCell id="rs_CFY3-zqZupF4UwYoz-13" value="Sale&#39;s Report" style="text;html=1;align=center;verticalAlign=middle;resizable=0;points=[];autosize=1;strokeColor=none;fillColor=none;" vertex="1" parent="1">
          <mxGeometry x="520" y="398" width="100" height="30" as="geometry" />
        </mxCell>
      </root>
    </mxGraphModel>
  </diagram>
  <diagram id="X1w58CMHZgR4-FlyaYRn" name="Page-4">
    <mxGraphModel grid="1" page="1" gridSize="10" guides="1" tooltips="1" connect="1" arrows="1" fold="1" pageScale="1" pageWidth="1169" pageHeight="827" math="0" shadow="0">
      <root>
        <mxCell id="0" />
        <mxCell id="1" parent="0" />
        <mxCell id="YJGI9R-C8_dKw5oqJeTm-1" value="Check Staff" style="shape=ellipse;html=1;dashed=0;whiteSpace=wrap;aspect=fixed;perimeter=ellipsePerimeter;" vertex="1" parent="1">
          <mxGeometry x="490" y="200" width="130" height="130" as="geometry" />
        </mxCell>
        <mxCell id="YJGI9R-C8_dKw5oqJeTm-2" value="Crreate&amp;nbsp;&lt;div&gt;Salary&lt;/div&gt;&lt;div&gt;Report&lt;/div&gt;" style="shape=ellipse;html=1;dashed=0;whiteSpace=wrap;aspect=fixed;perimeter=ellipsePerimeter;" vertex="1" parent="1">
          <mxGeometry x="290" y="410" width="120" height="120" as="geometry" />
        </mxCell>
        <mxCell id="YJGI9R-C8_dKw5oqJeTm-3" value="Manager" style="html=1;dashed=0;whiteSpace=wrap;fillColor=#007FFF;" vertex="1" parent="1">
          <mxGeometry x="110" y="230" width="210" height="50" as="geometry" />
        </mxCell>
        <mxCell id="YJGI9R-C8_dKw5oqJeTm-4" value="" style="endArrow=classic;html=1;rounded=0;exitX=1;exitY=0.5;exitDx=0;exitDy=0;" edge="1" parent="1" source="YJGI9R-C8_dKw5oqJeTm-3">
          <mxGeometry width="50" height="50" relative="1" as="geometry">
            <mxPoint x="350" y="310" as="sourcePoint" />
            <mxPoint x="490" y="265" as="targetPoint" />
          </mxGeometry>
        </mxCell>
        <mxCell id="YJGI9R-C8_dKw5oqJeTm-5" value="Staff&quot;s Info" style="text;html=1;align=center;verticalAlign=middle;resizable=0;points=[];autosize=1;strokeColor=none;fillColor=none;" vertex="1" parent="1">
          <mxGeometry x="360" y="238" width="80" height="30" as="geometry" />
        </mxCell>
        <mxCell id="YJGI9R-C8_dKw5oqJeTm-6" value="Set&lt;div&gt;Price&lt;/div&gt;" style="shape=ellipse;html=1;dashed=0;whiteSpace=wrap;aspect=fixed;perimeter=ellipsePerimeter;" vertex="1" parent="1">
          <mxGeometry x="70" y="590" width="120" height="120" as="geometry" />
        </mxCell>
        <mxCell id="YJGI9R-C8_dKw5oqJeTm-7" value="Create&lt;div&gt;Import&lt;/div&gt;&lt;div&gt;Report&lt;/div&gt;" style="shape=ellipse;html=1;dashed=0;whiteSpace=wrap;aspect=fixed;perimeter=ellipsePerimeter;" vertex="1" parent="1">
          <mxGeometry x="385" y="590" width="120" height="120" as="geometry" />
        </mxCell>
        <mxCell id="YJGI9R-C8_dKw5oqJeTm-8" value="Edit&lt;div&gt;Staff&lt;/div&gt;" style="shape=ellipse;html=1;dashed=0;whiteSpace=wrap;aspect=fixed;perimeter=ellipsePerimeter;" vertex="1" parent="1">
          <mxGeometry x="830" y="90" width="120" height="120" as="geometry" />
        </mxCell>
        <mxCell id="YJGI9R-C8_dKw5oqJeTm-9" value="Add&lt;div&gt;Staff&lt;/div&gt;" style="shape=ellipse;html=1;dashed=0;whiteSpace=wrap;aspect=fixed;perimeter=ellipsePerimeter;" vertex="1" parent="1">
          <mxGeometry x="840" y="330" width="120" height="120" as="geometry" />
        </mxCell>
        <mxCell id="YJGI9R-C8_dKw5oqJeTm-10" value="Create&lt;div&gt;Sale&lt;/div&gt;&lt;div&gt;Report&lt;/div&gt;" style="shape=ellipse;html=1;dashed=0;whiteSpace=wrap;aspect=fixed;perimeter=ellipsePerimeter;" vertex="1" parent="1">
          <mxGeometry x="960" y="575" width="120" height="120" as="geometry" />
        </mxCell>
        <mxCell id="YJGI9R-C8_dKw5oqJeTm-11" value="" style="endArrow=classic;html=1;rounded=0;entryX=1;entryY=0.5;entryDx=0;entryDy=0;exitX=0;exitY=0.5;exitDx=0;exitDy=0;" edge="1" parent="1" source="YJGI9R-C8_dKw5oqJeTm-12" target="YJGI9R-C8_dKw5oqJeTm-2">
          <mxGeometry width="50" height="50" relative="1" as="geometry">
            <mxPoint x="510" y="420" as="sourcePoint" />
            <mxPoint x="530" y="480" as="targetPoint" />
          </mxGeometry>
        </mxCell>
        <mxCell id="YJGI9R-C8_dKw5oqJeTm-12" value="Staff" style="html=1;dashed=0;whiteSpace=wrap;shape=partialRectangle;right=0;left=0;" vertex="1" parent="1">
          <mxGeometry x="500" y="390" width="120" height="44" as="geometry" />
        </mxCell>
        <mxCell id="YJGI9R-C8_dKw5oqJeTm-13" value="" style="endArrow=classic;html=1;rounded=0;exitX=0.084;exitY=1.049;exitDx=0;exitDy=0;exitPerimeter=0;" edge="1" parent="1" source="YJGI9R-C8_dKw5oqJeTm-12" target="YJGI9R-C8_dKw5oqJeTm-7">
          <mxGeometry width="50" height="50" relative="1" as="geometry">
            <mxPoint x="480" y="530" as="sourcePoint" />
            <mxPoint x="530" y="480" as="targetPoint" />
          </mxGeometry>
        </mxCell>
        <mxCell id="YJGI9R-C8_dKw5oqJeTm-14" value="Product" style="html=1;dashed=0;whiteSpace=wrap;shape=partialRectangle;right=0;left=0;" vertex="1" parent="1">
          <mxGeometry x="80" y="797" width="100" height="30" as="geometry" />
        </mxCell>
        <mxCell id="YJGI9R-C8_dKw5oqJeTm-15" value="Import" style="html=1;dashed=0;whiteSpace=wrap;shape=partialRectangle;right=0;left=0;" vertex="1" parent="1">
          <mxGeometry x="80" y="880" width="100" height="30" as="geometry" />
        </mxCell>
        <mxCell id="YJGI9R-C8_dKw5oqJeTm-16" value="" style="endArrow=classic;html=1;rounded=0;" edge="1" parent="1">
          <mxGeometry width="50" height="50" relative="1" as="geometry">
            <mxPoint x="120" y="780" as="sourcePoint" />
            <mxPoint x="120" y="720" as="targetPoint" />
          </mxGeometry>
        </mxCell>
        <mxCell id="YJGI9R-C8_dKw5oqJeTm-17" value="" style="endArrow=classic;html=1;rounded=0;" edge="1" parent="1">
          <mxGeometry width="50" height="50" relative="1" as="geometry">
            <mxPoint x="160" y="720" as="sourcePoint" />
            <mxPoint x="160" y="780" as="targetPoint" />
          </mxGeometry>
        </mxCell>
        <mxCell id="YJGI9R-C8_dKw5oqJeTm-18" value="" style="endArrow=classic;html=1;rounded=0;entryX=0.042;entryY=0.679;entryDx=0;entryDy=0;entryPerimeter=0;" edge="1" parent="1" target="YJGI9R-C8_dKw5oqJeTm-7">
          <mxGeometry width="50" height="50" relative="1" as="geometry">
            <mxPoint x="190" y="800" as="sourcePoint" />
            <mxPoint x="370" y="680" as="targetPoint" />
          </mxGeometry>
        </mxCell>
        <mxCell id="YJGI9R-C8_dKw5oqJeTm-19" value="" style="endArrow=classic;html=1;rounded=0;entryX=0.245;entryY=0.947;entryDx=0;entryDy=0;entryPerimeter=0;" edge="1" parent="1" target="YJGI9R-C8_dKw5oqJeTm-7">
          <mxGeometry width="50" height="50" relative="1" as="geometry">
            <mxPoint x="200" y="900" as="sourcePoint" />
            <mxPoint x="400" y="720" as="targetPoint" />
          </mxGeometry>
        </mxCell>
        <mxCell id="YJGI9R-C8_dKw5oqJeTm-20" value="Supplier" style="html=1;dashed=0;whiteSpace=wrap;shape=partialRectangle;right=0;left=0;" vertex="1" parent="1">
          <mxGeometry x="395" y="840" width="100" height="40" as="geometry" />
        </mxCell>
        <mxCell id="YJGI9R-C8_dKw5oqJeTm-21" value="" style="endArrow=classic;html=1;rounded=0;exitX=0.5;exitY=0;exitDx=0;exitDy=0;entryX=0.5;entryY=1;entryDx=0;entryDy=0;" edge="1" parent="1" source="YJGI9R-C8_dKw5oqJeTm-20" target="YJGI9R-C8_dKw5oqJeTm-7">
          <mxGeometry width="50" height="50" relative="1" as="geometry">
            <mxPoint x="610" y="760" as="sourcePoint" />
            <mxPoint x="660" y="710" as="targetPoint" />
          </mxGeometry>
        </mxCell>
        <mxCell id="YJGI9R-C8_dKw5oqJeTm-22" value="" style="endArrow=classic;html=1;rounded=0;exitX=0.5;exitY=0;exitDx=0;exitDy=0;" edge="1" parent="1" source="YJGI9R-C8_dKw5oqJeTm-12">
          <mxGeometry width="50" height="50" relative="1" as="geometry">
            <mxPoint x="600" y="300" as="sourcePoint" />
            <mxPoint x="560" y="334" as="targetPoint" />
          </mxGeometry>
        </mxCell>
        <mxCell id="YJGI9R-C8_dKw5oqJeTm-23" value="" style="endArrow=classic;html=1;rounded=0;entryX=0.5;entryY=0;entryDx=0;entryDy=0;" edge="1" parent="1" source="YJGI9R-C8_dKw5oqJeTm-3" target="YJGI9R-C8_dKw5oqJeTm-6">
          <mxGeometry width="50" height="50" relative="1" as="geometry">
            <mxPoint x="80" y="440" as="sourcePoint" />
            <mxPoint x="200" y="430" as="targetPoint" />
          </mxGeometry>
        </mxCell>
        <mxCell id="YJGI9R-C8_dKw5oqJeTm-24" value="Manager" style="html=1;dashed=0;whiteSpace=wrap;" vertex="1" parent="1">
          <mxGeometry x="660" y="610" width="150" height="50" as="geometry" />
        </mxCell>
        <mxCell id="YJGI9R-C8_dKw5oqJeTm-25" value="" style="endArrow=classic;html=1;rounded=0;exitX=0.968;exitY=0.373;exitDx=0;exitDy=0;exitPerimeter=0;entryX=0;entryY=0.5;entryDx=0;entryDy=0;" edge="1" parent="1" source="YJGI9R-C8_dKw5oqJeTm-7" target="YJGI9R-C8_dKw5oqJeTm-24">
          <mxGeometry width="50" height="50" relative="1" as="geometry">
            <mxPoint x="600" y="480" as="sourcePoint" />
            <mxPoint x="650" y="430" as="targetPoint" />
          </mxGeometry>
        </mxCell>
        <mxCell id="YJGI9R-C8_dKw5oqJeTm-26" value="Importr&quot;s Report" style="text;html=1;align=center;verticalAlign=middle;resizable=0;points=[];autosize=1;strokeColor=none;fillColor=none;" vertex="1" parent="1">
          <mxGeometry x="505" y="608" width="110" height="30" as="geometry" />
        </mxCell>
        <mxCell id="YJGI9R-C8_dKw5oqJeTm-27" value="" style="endArrow=classic;html=1;rounded=0;exitX=0;exitY=0.5;exitDx=0;exitDy=0;" edge="1" parent="1" source="YJGI9R-C8_dKw5oqJeTm-10">
          <mxGeometry width="50" height="50" relative="1" as="geometry">
            <mxPoint x="1010" y="635" as="sourcePoint" />
            <mxPoint x="810" y="635" as="targetPoint" />
          </mxGeometry>
        </mxCell>
        <mxCell id="YJGI9R-C8_dKw5oqJeTm-28" value="Sale&#39;s Report" style="text;html=1;align=center;verticalAlign=middle;resizable=0;points=[];autosize=1;strokeColor=none;fillColor=none;" vertex="1" parent="1">
          <mxGeometry x="840" y="608" width="100" height="30" as="geometry" />
        </mxCell>
        <mxCell id="YJGI9R-C8_dKw5oqJeTm-29" value="Product" style="html=1;dashed=0;whiteSpace=wrap;shape=partialRectangle;right=0;left=0;" vertex="1" parent="1">
          <mxGeometry x="1160" y="530" width="100" height="30" as="geometry" />
        </mxCell>
        <mxCell id="YJGI9R-C8_dKw5oqJeTm-30" value="Order" style="html=1;dashed=0;whiteSpace=wrap;shape=partialRectangle;right=0;left=0;" vertex="1" parent="1">
          <mxGeometry x="1160" y="608" width="100" height="30" as="geometry" />
        </mxCell>
        <mxCell id="YJGI9R-C8_dKw5oqJeTm-31" value="Customer" style="html=1;dashed=0;whiteSpace=wrap;shape=partialRectangle;right=0;left=0;" vertex="1" parent="1">
          <mxGeometry x="1160" y="680" width="100" height="30" as="geometry" />
        </mxCell>
        <mxCell id="YJGI9R-C8_dKw5oqJeTm-32" value="" style="endArrow=classic;html=1;rounded=0;" edge="1" parent="1" target="YJGI9R-C8_dKw5oqJeTm-10">
          <mxGeometry width="50" height="50" relative="1" as="geometry">
            <mxPoint x="1150" y="550" as="sourcePoint" />
            <mxPoint x="1150" y="558" as="targetPoint" />
          </mxGeometry>
        </mxCell>
        <mxCell id="YJGI9R-C8_dKw5oqJeTm-33" value="" style="endArrow=classic;html=1;rounded=0;exitX=0;exitY=0.75;exitDx=0;exitDy=0;" edge="1" parent="1" source="YJGI9R-C8_dKw5oqJeTm-30">
          <mxGeometry width="50" height="50" relative="1" as="geometry">
            <mxPoint x="1110" y="660" as="sourcePoint" />
            <mxPoint x="1081" y="631" as="targetPoint" />
          </mxGeometry>
        </mxCell>
        <mxCell id="YJGI9R-C8_dKw5oqJeTm-34" value="" style="endArrow=classic;html=1;rounded=0;entryX=1;entryY=1;entryDx=0;entryDy=0;exitX=0;exitY=0.5;exitDx=0;exitDy=0;" edge="1" parent="1" source="YJGI9R-C8_dKw5oqJeTm-31" target="YJGI9R-C8_dKw5oqJeTm-10">
          <mxGeometry width="50" height="50" relative="1" as="geometry">
            <mxPoint x="1080" y="720" as="sourcePoint" />
            <mxPoint x="1130" y="670" as="targetPoint" />
          </mxGeometry>
        </mxCell>
      </root>
    </mxGraphModel>
  </diagram>
  <diagram id="bpxC81DHcgFxmLt_pF4L" name="Page-5">
    <mxGraphModel grid="1" page="1" gridSize="10" guides="1" tooltips="1" connect="1" arrows="1" fold="1" pageScale="1" pageWidth="850" pageHeight="1100" math="0" shadow="0">
      <root>
        <mxCell id="0" />
        <mxCell id="1" parent="0" />
        <mxCell id="cSr-MzTvyCTZ4oGqtsYN-2" value="" style="html=1;dashed=0;whiteSpace=wrap;strokeColor=#3399FF;fillColor=#2EFF58;" vertex="1" parent="1">
          <mxGeometry x="70" y="225.5" width="100" height="30" as="geometry" />
        </mxCell>
        <mxCell id="cSr-MzTvyCTZ4oGqtsYN-1" value="Customer" style="text;html=1;align=center;verticalAlign=middle;resizable=0;points=[];autosize=1;strokeColor=none;fillColor=none;" vertex="1" parent="1">
          <mxGeometry x="80" y="225.5" width="80" height="30" as="geometry" />
        </mxCell>
        <mxCell id="cSr-MzTvyCTZ4oGqtsYN-3" value="" style="endArrow=classic;html=1;rounded=0;fillColor=#ffe6cc;strokeColor=#d79b00;" edge="1" parent="1">
          <mxGeometry width="50" height="50" relative="1" as="geometry">
            <mxPoint x="170" y="240.5" as="sourcePoint" />
            <mxPoint x="280" y="240.14" as="targetPoint" />
          </mxGeometry>
        </mxCell>
        <mxCell id="cSr-MzTvyCTZ4oGqtsYN-4" value="&lt;font style=&quot;font-size: 10px;&quot;&gt;Cus in, Ord pro.&lt;/font&gt;" style="text;html=1;align=center;verticalAlign=middle;resizable=0;points=[];autosize=1;strokeColor=none;fillColor=none;" vertex="1" parent="1">
          <mxGeometry x="180" y="210" width="90" height="30" as="geometry" />
        </mxCell>
        <mxCell id="cSr-MzTvyCTZ4oGqtsYN-5" value="" style="ellipse;whiteSpace=wrap;html=1;aspect=fixed;fillColor=#1F87FF;" vertex="1" parent="1">
          <mxGeometry x="290" y="208" width="65" height="65" as="geometry" />
        </mxCell>
        <mxCell id="cSr-MzTvyCTZ4oGqtsYN-6" value="" style="ellipse;whiteSpace=wrap;html=1;aspect=fixed;fillColor=#1F87FF;" vertex="1" parent="1">
          <mxGeometry x="480" y="160.5" width="65" height="65" as="geometry" />
        </mxCell>
        <mxCell id="cSr-MzTvyCTZ4oGqtsYN-7" value="" style="endArrow=none;html=1;rounded=0;fillColor=#ffe6cc;strokeColor=#d79b00;" edge="1" parent="1">
          <mxGeometry width="50" height="50" relative="1" as="geometry">
            <mxPoint x="360" y="240" as="sourcePoint" />
            <mxPoint x="430" y="240" as="targetPoint" />
          </mxGeometry>
        </mxCell>
        <mxCell id="cSr-MzTvyCTZ4oGqtsYN-9" value="" style="endArrow=classic;html=1;rounded=0;fillColor=#ffe6cc;strokeColor=#d79b00;" edge="1" parent="1">
          <mxGeometry width="50" height="50" relative="1" as="geometry">
            <mxPoint x="430" y="240" as="sourcePoint" />
            <mxPoint x="480" y="200" as="targetPoint" />
          </mxGeometry>
        </mxCell>
        <mxCell id="cSr-MzTvyCTZ4oGqtsYN-10" value="" style="endArrow=classic;html=1;rounded=0;fillColor=#ffe6cc;strokeColor=#d79b00;" edge="1" parent="1">
          <mxGeometry width="50" height="50" relative="1" as="geometry">
            <mxPoint x="430" y="240" as="sourcePoint" />
            <mxPoint x="480" y="280" as="targetPoint" />
          </mxGeometry>
        </mxCell>
        <mxCell id="cSr-MzTvyCTZ4oGqtsYN-11" value="" style="ellipse;whiteSpace=wrap;html=1;aspect=fixed;fillColor=#1F87FF;" vertex="1" parent="1">
          <mxGeometry x="480" y="255.5" width="65" height="65" as="geometry" />
        </mxCell>
        <mxCell id="cSr-MzTvyCTZ4oGqtsYN-12" value="&lt;font style=&quot;font-size: 10px;&quot;&gt;Cus in, Ord pro.&lt;/font&gt;" style="text;html=1;align=center;verticalAlign=middle;resizable=0;points=[];autosize=1;strokeColor=none;fillColor=none;" vertex="1" parent="1">
          <mxGeometry x="350" y="210" width="90" height="30" as="geometry" />
        </mxCell>
        <mxCell id="cSr-MzTvyCTZ4oGqtsYN-13" value="False" style="text;html=1;align=center;verticalAlign=middle;resizable=0;points=[];autosize=1;strokeColor=none;fillColor=none;rotation=-40;" vertex="1" parent="1">
          <mxGeometry x="420" y="198" width="50" height="30" as="geometry" />
        </mxCell>
        <mxCell id="cSr-MzTvyCTZ4oGqtsYN-14" value="True" style="text;html=1;align=center;verticalAlign=middle;resizable=0;points=[];autosize=1;strokeColor=none;fillColor=none;rotation=40;" vertex="1" parent="1">
          <mxGeometry x="420" y="250" width="50" height="30" as="geometry" />
        </mxCell>
        <mxCell id="cSr-MzTvyCTZ4oGqtsYN-15" value="&lt;font color=&quot;#00ff00&quot;&gt;Check&lt;/font&gt;&lt;div&gt;&lt;font color=&quot;#00ff00&quot;&gt;Product&lt;/font&gt;&lt;/div&gt;" style="text;html=1;align=center;verticalAlign=middle;resizable=0;points=[];autosize=1;strokeColor=none;fillColor=none;" vertex="1" parent="1">
          <mxGeometry x="290" y="220.5" width="60" height="40" as="geometry" />
        </mxCell>
        <mxCell id="cSr-MzTvyCTZ4oGqtsYN-16" value="&lt;font color=&quot;#33ff33&quot;&gt;Create&lt;/font&gt;&lt;div&gt;&lt;font color=&quot;#33ff33&quot;&gt;MSG&lt;/font&gt;&lt;/div&gt;" style="text;html=1;align=center;verticalAlign=middle;resizable=0;points=[];autosize=1;strokeColor=none;fillColor=none;" vertex="1" parent="1">
          <mxGeometry x="482.5" y="174.5" width="60" height="40" as="geometry" />
        </mxCell>
        <mxCell id="cSr-MzTvyCTZ4oGqtsYN-17" value="&lt;font color=&quot;#00ff00&quot;&gt;Create&lt;/font&gt;&lt;div&gt;&lt;font color=&quot;#00ff00&quot;&gt;Cus&lt;/font&gt;&lt;/div&gt;" style="text;html=1;align=center;verticalAlign=middle;resizable=0;points=[];autosize=1;strokeColor=none;fillColor=none;" vertex="1" parent="1">
          <mxGeometry x="482.5" y="268" width="60" height="40" as="geometry" />
        </mxCell>
        <mxCell id="cSr-MzTvyCTZ4oGqtsYN-20" value="" style="endArrow=none;html=1;rounded=0;" edge="1" parent="1">
          <mxGeometry width="50" height="50" relative="1" as="geometry">
            <mxPoint x="560" y="190" as="sourcePoint" />
            <mxPoint x="610" y="190" as="targetPoint" />
          </mxGeometry>
        </mxCell>
        <mxCell id="cSr-MzTvyCTZ4oGqtsYN-21" value="" style="endArrow=none;html=1;rounded=0;" edge="1" parent="1">
          <mxGeometry width="50" height="50" relative="1" as="geometry">
            <mxPoint x="560" y="213" as="sourcePoint" />
            <mxPoint x="610" y="213" as="targetPoint" />
          </mxGeometry>
        </mxCell>
        <mxCell id="cSr-MzTvyCTZ4oGqtsYN-22" value="Customer" style="text;html=1;align=center;verticalAlign=middle;resizable=0;points=[];autosize=1;strokeColor=none;fillColor=none;" vertex="1" parent="1">
          <mxGeometry x="545" y="184.5" width="80" height="30" as="geometry" />
        </mxCell>
        <mxCell id="cSr-MzTvyCTZ4oGqtsYN-23" value="" style="endArrow=classic;html=1;rounded=0;exitX=0.313;exitY=1.183;exitDx=0;exitDy=0;exitPerimeter=0;fillColor=#ffe6cc;strokeColor=#d79b00;" edge="1" parent="1" source="cSr-MzTvyCTZ4oGqtsYN-22">
          <mxGeometry width="50" height="50" relative="1" as="geometry">
            <mxPoint x="580" y="230" as="sourcePoint" />
            <mxPoint x="540" y="250" as="targetPoint" />
            <Array as="points">
              <mxPoint x="560" y="230" />
            </Array>
          </mxGeometry>
        </mxCell>
        <mxCell id="cSr-MzTvyCTZ4oGqtsYN-27" value="" style="endArrow=none;html=1;rounded=0;fillColor=#ffe6cc;strokeColor=#d79b00;" edge="1" parent="1">
          <mxGeometry width="50" height="50" relative="1" as="geometry">
            <mxPoint x="550" y="296.5" as="sourcePoint" />
            <mxPoint x="600" y="296" as="targetPoint" />
          </mxGeometry>
        </mxCell>
        <mxCell id="cSr-MzTvyCTZ4oGqtsYN-28" value="" style="endArrow=classic;html=1;rounded=0;fillColor=#ffe6cc;strokeColor=#d79b00;" edge="1" parent="1">
          <mxGeometry width="50" height="50" relative="1" as="geometry">
            <mxPoint x="600" y="296" as="sourcePoint" />
            <mxPoint x="640" y="260.5" as="targetPoint" />
          </mxGeometry>
        </mxCell>
        <mxCell id="cSr-MzTvyCTZ4oGqtsYN-29" value="" style="endArrow=classic;html=1;rounded=0;fillColor=#ffe6cc;strokeColor=#d79b00;" edge="1" parent="1">
          <mxGeometry width="50" height="50" relative="1" as="geometry">
            <mxPoint x="600" y="296" as="sourcePoint" />
            <mxPoint x="640" y="330" as="targetPoint" />
          </mxGeometry>
        </mxCell>
        <mxCell id="cSr-MzTvyCTZ4oGqtsYN-31" value="" style="ellipse;whiteSpace=wrap;html=1;aspect=fixed;fillColor=#1F87FF;" vertex="1" parent="1">
          <mxGeometry x="650" y="214.5" width="65" height="65" as="geometry" />
        </mxCell>
        <mxCell id="cSr-MzTvyCTZ4oGqtsYN-32" value="" style="ellipse;whiteSpace=wrap;html=1;aspect=fixed;fillColor=#1F87FF;" vertex="1" parent="1">
          <mxGeometry x="650" y="308" width="65" height="65" as="geometry" />
        </mxCell>
        <mxCell id="cSr-MzTvyCTZ4oGqtsYN-33" value="&lt;font color=&quot;#00ff00&quot;&gt;Addnew&lt;/font&gt;&lt;div&gt;&lt;font color=&quot;#00ff00&quot;&gt;&amp;nbsp;CUS&lt;/font&gt;&lt;/div&gt;" style="text;html=1;align=center;verticalAlign=middle;resizable=0;points=[];autosize=1;strokeColor=none;fillColor=none;" vertex="1" parent="1">
          <mxGeometry x="647.5" y="228" width="70" height="40" as="geometry" />
        </mxCell>
        <mxCell id="cSr-MzTvyCTZ4oGqtsYN-34" value="&lt;font color=&quot;#00ff00&quot;&gt;Edit Cus&lt;/font&gt;" style="text;html=1;align=center;verticalAlign=middle;resizable=0;points=[];autosize=1;strokeColor=none;fillColor=none;" vertex="1" parent="1">
          <mxGeometry x="647.5" y="325.5" width="70" height="30" as="geometry" />
        </mxCell>
        <mxCell id="cSr-MzTvyCTZ4oGqtsYN-36" value="" style="endArrow=classic;html=1;rounded=0;fillColor=#ffe6cc;strokeColor=#d79b00;" edge="1" parent="1">
          <mxGeometry width="50" height="50" relative="1" as="geometry">
            <mxPoint x="654" y="224.5" as="sourcePoint" />
            <mxPoint x="614" y="204.5" as="targetPoint" />
          </mxGeometry>
        </mxCell>
        <mxCell id="cSr-MzTvyCTZ4oGqtsYN-37" value="False" style="text;html=1;align=center;verticalAlign=middle;resizable=0;points=[];autosize=1;strokeColor=none;fillColor=none;rotation=40;" vertex="1" parent="1">
          <mxGeometry x="585" y="295.5" width="50" height="30" as="geometry" />
        </mxCell>
        <mxCell id="cSr-MzTvyCTZ4oGqtsYN-38" value="Ttue" style="text;html=1;align=center;verticalAlign=middle;resizable=0;points=[];autosize=1;strokeColor=none;fillColor=none;rotation=-40;" vertex="1" parent="1">
          <mxGeometry x="585" y="263" width="50" height="30" as="geometry" />
        </mxCell>
        <mxCell id="cSr-MzTvyCTZ4oGqtsYN-39" value="&lt;span style=&quot;font-size: 10px;&quot;&gt;Cus&#39;s Infor&lt;/span&gt;" style="text;html=1;align=center;verticalAlign=middle;resizable=0;points=[];autosize=1;strokeColor=none;fillColor=none;" vertex="1" parent="1">
          <mxGeometry x="540" y="273" width="70" height="30" as="geometry" />
        </mxCell>
        <mxCell id="cSr-MzTvyCTZ4oGqtsYN-41" value="" style="ellipse;whiteSpace=wrap;html=1;aspect=fixed;fillColor=#1F87FF;" vertex="1" parent="1">
          <mxGeometry x="70" y="480" width="65" height="65" as="geometry" />
        </mxCell>
        <mxCell id="cSr-MzTvyCTZ4oGqtsYN-42" value="" style="endArrow=none;html=1;rounded=0;" edge="1" parent="1">
          <mxGeometry width="50" height="50" relative="1" as="geometry">
            <mxPoint x="160" y="440" as="sourcePoint" />
            <mxPoint x="230" y="440" as="targetPoint" />
          </mxGeometry>
        </mxCell>
        <mxCell id="cSr-MzTvyCTZ4oGqtsYN-43" value="" style="endArrow=none;html=1;rounded=0;" edge="1" parent="1">
          <mxGeometry width="50" height="50" relative="1" as="geometry">
            <mxPoint x="160" y="460" as="sourcePoint" />
            <mxPoint x="230" y="460" as="targetPoint" />
          </mxGeometry>
        </mxCell>
        <mxCell id="cSr-MzTvyCTZ4oGqtsYN-46" value="" style="endArrow=none;html=1;rounded=0;" edge="1" parent="1">
          <mxGeometry width="50" height="50" relative="1" as="geometry">
            <mxPoint x="161" y="498" as="sourcePoint" />
            <mxPoint x="231" y="498" as="targetPoint" />
          </mxGeometry>
        </mxCell>
        <mxCell id="cSr-MzTvyCTZ4oGqtsYN-47" value="" style="endArrow=none;html=1;rounded=0;" edge="1" parent="1">
          <mxGeometry width="50" height="50" relative="1" as="geometry">
            <mxPoint x="161" y="518" as="sourcePoint" />
            <mxPoint x="231" y="518" as="targetPoint" />
          </mxGeometry>
        </mxCell>
        <mxCell id="cSr-MzTvyCTZ4oGqtsYN-48" value="" style="endArrow=none;html=1;rounded=0;" edge="1" parent="1">
          <mxGeometry width="50" height="50" relative="1" as="geometry">
            <mxPoint x="159" y="539" as="sourcePoint" />
            <mxPoint x="229" y="539" as="targetPoint" />
          </mxGeometry>
        </mxCell>
        <mxCell id="cSr-MzTvyCTZ4oGqtsYN-49" value="" style="endArrow=none;html=1;rounded=0;" edge="1" parent="1">
          <mxGeometry width="50" height="50" relative="1" as="geometry">
            <mxPoint x="159" y="559" as="sourcePoint" />
            <mxPoint x="229" y="559" as="targetPoint" />
          </mxGeometry>
        </mxCell>
        <mxCell id="cSr-MzTvyCTZ4oGqtsYN-50" value="&lt;font style=&quot;font-size: 10px;&quot;&gt;Staff&lt;/font&gt;" style="text;html=1;align=center;verticalAlign=middle;resizable=0;points=[];autosize=1;strokeColor=none;fillColor=none;" vertex="1" parent="1">
          <mxGeometry x="175" y="434" width="40" height="30" as="geometry" />
        </mxCell>
        <mxCell id="cSr-MzTvyCTZ4oGqtsYN-51" value="&lt;font style=&quot;font-size: 10px;&quot;&gt;Order&lt;/font&gt;" style="text;html=1;align=center;verticalAlign=middle;resizable=0;points=[];autosize=1;strokeColor=none;fillColor=none;" vertex="1" parent="1">
          <mxGeometry x="166" y="492" width="50" height="30" as="geometry" />
        </mxCell>
        <mxCell id="cSr-MzTvyCTZ4oGqtsYN-52" value="&lt;font style=&quot;font-size: 10px;&quot;&gt;Payment&lt;/font&gt;" style="text;html=1;align=center;verticalAlign=middle;resizable=0;points=[];autosize=1;strokeColor=none;fillColor=none;" vertex="1" parent="1">
          <mxGeometry x="161" y="534" width="60" height="30" as="geometry" />
        </mxCell>
        <mxCell id="cSr-MzTvyCTZ4oGqtsYN-53" value="&lt;font color=&quot;#99ffcc&quot;&gt;Add&lt;/font&gt;&lt;div&gt;&lt;font color=&quot;#99ffcc&quot;&gt;Payment&lt;/font&gt;&lt;/div&gt;" style="text;html=1;align=center;verticalAlign=middle;resizable=0;points=[];autosize=1;strokeColor=none;fillColor=none;" vertex="1" parent="1">
          <mxGeometry x="65" y="494" width="70" height="40" as="geometry" />
        </mxCell>
        <mxCell id="cSr-MzTvyCTZ4oGqtsYN-54" value="" style="ellipse;whiteSpace=wrap;html=1;aspect=fixed;fillColor=#1F87FF;" vertex="1" parent="1">
          <mxGeometry x="345" y="450" width="65" height="65" as="geometry" />
        </mxCell>
        <mxCell id="cSr-MzTvyCTZ4oGqtsYN-55" value="&lt;font color=&quot;#00ff00&quot;&gt;Add New&lt;/font&gt;&lt;div&gt;&lt;font color=&quot;#00ff00&quot;&gt;Order&lt;/font&gt;&lt;/div&gt;" style="text;html=1;align=center;verticalAlign=middle;resizable=0;points=[];autosize=1;strokeColor=none;fillColor=none;" vertex="1" parent="1">
          <mxGeometry x="340" y="464" width="70" height="40" as="geometry" />
        </mxCell>
        <mxCell id="cSr-MzTvyCTZ4oGqtsYN-56" value="" style="ellipse;whiteSpace=wrap;html=1;aspect=fixed;fillColor=#1F87FF;" vertex="1" parent="1">
          <mxGeometry x="345" y="557" width="65" height="65" as="geometry" />
        </mxCell>
        <mxCell id="cSr-MzTvyCTZ4oGqtsYN-57" value="&lt;font color=&quot;#00ff00&quot;&gt;Add&lt;/font&gt;&lt;div&gt;&lt;font color=&quot;#00ff00&quot;&gt;Deposit&lt;/font&gt;&lt;/div&gt;" style="text;html=1;align=center;verticalAlign=middle;resizable=0;points=[];autosize=1;strokeColor=none;fillColor=none;" vertex="1" parent="1">
          <mxGeometry x="345" y="571" width="60" height="40" as="geometry" />
        </mxCell>
        <mxCell id="cSr-MzTvyCTZ4oGqtsYN-58" value="" style="ellipse;whiteSpace=wrap;html=1;aspect=fixed;fillColor=#1F87FF;" vertex="1" parent="1">
          <mxGeometry x="487.5" y="434" width="65" height="65" as="geometry" />
        </mxCell>
        <mxCell id="cSr-MzTvyCTZ4oGqtsYN-59" value="&lt;font color=&quot;#00ff00&quot;&gt;Edit&lt;/font&gt;&lt;div&gt;&lt;font color=&quot;#00ff00&quot;&gt;Stock&lt;/font&gt;&lt;/div&gt;" style="text;html=1;align=center;verticalAlign=middle;resizable=0;points=[];autosize=1;strokeColor=none;fillColor=none;" vertex="1" parent="1">
          <mxGeometry x="492.5" y="448" width="50" height="40" as="geometry" />
        </mxCell>
        <mxCell id="cSr-MzTvyCTZ4oGqtsYN-60" value="" style="ellipse;whiteSpace=wrap;html=1;aspect=fixed;fillColor=#1F87FF;" vertex="1" parent="1">
          <mxGeometry x="590" y="499" width="65" height="65" as="geometry" />
        </mxCell>
        <mxCell id="cSr-MzTvyCTZ4oGqtsYN-61" value="&lt;font color=&quot;#00ff00&quot;&gt;Create&lt;/font&gt;&lt;div&gt;&lt;font color=&quot;#00ff00&quot;&gt;Invoice&lt;/font&gt;&lt;/div&gt;" style="text;html=1;align=center;verticalAlign=middle;resizable=0;points=[];autosize=1;strokeColor=none;fillColor=none;" vertex="1" parent="1">
          <mxGeometry x="590" y="513" width="60" height="40" as="geometry" />
        </mxCell>
        <mxCell id="cSr-MzTvyCTZ4oGqtsYN-62" value="" style="html=1;dashed=0;whiteSpace=wrap;strokeColor=#3399FF;fillColor=#2EFF58;" vertex="1" parent="1">
          <mxGeometry x="665" y="590" width="100" height="30" as="geometry" />
        </mxCell>
        <mxCell id="cSr-MzTvyCTZ4oGqtsYN-63" value="Customer" style="text;html=1;align=center;verticalAlign=middle;resizable=0;points=[];autosize=1;strokeColor=none;fillColor=none;" vertex="1" parent="1">
          <mxGeometry x="675" y="590" width="80" height="30" as="geometry" />
        </mxCell>
        <mxCell id="cSr-MzTvyCTZ4oGqtsYN-64" value="" style="endArrow=none;html=1;rounded=0;" edge="1" parent="1">
          <mxGeometry width="50" height="50" relative="1" as="geometry">
            <mxPoint x="430" y="524" as="sourcePoint" />
            <mxPoint x="500" y="524" as="targetPoint" />
          </mxGeometry>
        </mxCell>
        <mxCell id="cSr-MzTvyCTZ4oGqtsYN-65" value="" style="endArrow=none;html=1;rounded=0;" edge="1" parent="1">
          <mxGeometry width="50" height="50" relative="1" as="geometry">
            <mxPoint x="430" y="544" as="sourcePoint" />
            <mxPoint x="500" y="544" as="targetPoint" />
          </mxGeometry>
        </mxCell>
        <mxCell id="cSr-MzTvyCTZ4oGqtsYN-66" value="&lt;font style=&quot;font-size: 10px;&quot;&gt;Customer&lt;/font&gt;" style="text;html=1;align=center;verticalAlign=middle;resizable=0;points=[];autosize=1;strokeColor=none;fillColor=none;" vertex="1" parent="1">
          <mxGeometry x="430" y="518" width="70" height="30" as="geometry" />
        </mxCell>
        <mxCell id="cSr-MzTvyCTZ4oGqtsYN-67" value="" style="endArrow=none;html=1;rounded=0;" edge="1" parent="1">
          <mxGeometry width="50" height="50" relative="1" as="geometry">
            <mxPoint x="430" y="586" as="sourcePoint" />
            <mxPoint x="500" y="586" as="targetPoint" />
          </mxGeometry>
        </mxCell>
        <mxCell id="cSr-MzTvyCTZ4oGqtsYN-68" value="" style="endArrow=none;html=1;rounded=0;" edge="1" parent="1">
          <mxGeometry width="50" height="50" relative="1" as="geometry">
            <mxPoint x="430" y="606" as="sourcePoint" />
            <mxPoint x="500" y="606" as="targetPoint" />
          </mxGeometry>
        </mxCell>
        <mxCell id="cSr-MzTvyCTZ4oGqtsYN-69" value="&lt;font style=&quot;font-size: 10px;&quot;&gt;Staff&lt;/font&gt;" style="text;html=1;align=center;verticalAlign=middle;resizable=0;points=[];autosize=1;strokeColor=none;fillColor=none;" vertex="1" parent="1">
          <mxGeometry x="445" y="580" width="40" height="30" as="geometry" />
        </mxCell>
        <mxCell id="cSr-MzTvyCTZ4oGqtsYN-70" value="" style="endArrow=none;html=1;rounded=0;" edge="1" parent="1">
          <mxGeometry width="50" height="50" relative="1" as="geometry">
            <mxPoint x="647.5" y="418" as="sourcePoint" />
            <mxPoint x="717.5" y="418" as="targetPoint" />
          </mxGeometry>
        </mxCell>
        <mxCell id="cSr-MzTvyCTZ4oGqtsYN-71" value="" style="endArrow=none;html=1;rounded=0;" edge="1" parent="1">
          <mxGeometry width="50" height="50" relative="1" as="geometry">
            <mxPoint x="647.5" y="438" as="sourcePoint" />
            <mxPoint x="717.5" y="438" as="targetPoint" />
          </mxGeometry>
        </mxCell>
        <mxCell id="cSr-MzTvyCTZ4oGqtsYN-72" value="&lt;font style=&quot;font-size: 10px;&quot;&gt;Customer&lt;/font&gt;" style="text;html=1;align=center;verticalAlign=middle;resizable=0;points=[];autosize=1;strokeColor=none;fillColor=none;" vertex="1" parent="1">
          <mxGeometry x="647.5" y="412" width="70" height="30" as="geometry" />
        </mxCell>
        <mxCell id="cSr-MzTvyCTZ4oGqtsYN-73" value="" style="endArrow=classic;html=1;rounded=0;fillColor=#ffe6cc;strokeColor=#d79b00;" edge="1" parent="1">
          <mxGeometry width="50" height="50" relative="1" as="geometry">
            <mxPoint x="675" y="375" as="sourcePoint" />
            <mxPoint x="675" y="415" as="targetPoint" />
          </mxGeometry>
        </mxCell>
        <mxCell id="cSr-MzTvyCTZ4oGqtsYN-74" value="" style="endArrow=classic;html=1;rounded=0;fillColor=#ffe6cc;strokeColor=#d79b00;" edge="1" parent="1">
          <mxGeometry width="50" height="50" relative="1" as="geometry">
            <mxPoint x="687" y="415" as="sourcePoint" />
            <mxPoint x="687" y="375" as="targetPoint" />
          </mxGeometry>
        </mxCell>
        <mxCell id="cSr-MzTvyCTZ4oGqtsYN-81" value="" style="endArrow=none;html=1;rounded=0;" edge="1" parent="1">
          <mxGeometry width="50" height="50" relative="1" as="geometry">
            <mxPoint x="370" y="349" as="sourcePoint" />
            <mxPoint x="440" y="349" as="targetPoint" />
          </mxGeometry>
        </mxCell>
        <mxCell id="cSr-MzTvyCTZ4oGqtsYN-82" value="" style="endArrow=none;html=1;rounded=0;" edge="1" parent="1">
          <mxGeometry width="50" height="50" relative="1" as="geometry">
            <mxPoint x="370" y="369" as="sourcePoint" />
            <mxPoint x="440" y="369" as="targetPoint" />
          </mxGeometry>
        </mxCell>
        <mxCell id="cSr-MzTvyCTZ4oGqtsYN-83" value="&lt;font style=&quot;font-size: 10px;&quot;&gt;Product&lt;/font&gt;" style="text;html=1;align=center;verticalAlign=middle;resizable=0;points=[];autosize=1;strokeColor=none;fillColor=none;" vertex="1" parent="1">
          <mxGeometry x="375" y="343" width="60" height="30" as="geometry" />
        </mxCell>
        <mxCell id="cSr-MzTvyCTZ4oGqtsYN-85" value="" style="endArrow=none;html=1;rounded=0;" edge="1" parent="1">
          <mxGeometry width="50" height="50" relative="1" as="geometry">
            <mxPoint x="574" y="411" as="sourcePoint" />
            <mxPoint x="644" y="411" as="targetPoint" />
          </mxGeometry>
        </mxCell>
        <mxCell id="cSr-MzTvyCTZ4oGqtsYN-86" value="" style="endArrow=none;html=1;rounded=0;" edge="1" parent="1">
          <mxGeometry width="50" height="50" relative="1" as="geometry">
            <mxPoint x="574" y="431" as="sourcePoint" />
            <mxPoint x="644" y="431" as="targetPoint" />
          </mxGeometry>
        </mxCell>
        <mxCell id="cSr-MzTvyCTZ4oGqtsYN-87" value="&lt;font style=&quot;font-size: 10px;&quot;&gt;Product&lt;/font&gt;" style="text;html=1;align=center;verticalAlign=middle;resizable=0;points=[];autosize=1;strokeColor=none;fillColor=none;" vertex="1" parent="1">
          <mxGeometry x="575" y="405" width="60" height="30" as="geometry" />
        </mxCell>
        <mxCell id="cSr-MzTvyCTZ4oGqtsYN-88" value="" style="endArrow=none;html=1;rounded=0;" edge="1" parent="1">
          <mxGeometry width="50" height="50" relative="1" as="geometry">
            <mxPoint x="530" y="379" as="sourcePoint" />
            <mxPoint x="600" y="379" as="targetPoint" />
          </mxGeometry>
        </mxCell>
        <mxCell id="cSr-MzTvyCTZ4oGqtsYN-89" value="" style="endArrow=none;html=1;rounded=0;" edge="1" parent="1">
          <mxGeometry width="50" height="50" relative="1" as="geometry">
            <mxPoint x="530" y="399" as="sourcePoint" />
            <mxPoint x="600" y="399" as="targetPoint" />
          </mxGeometry>
        </mxCell>
        <mxCell id="cSr-MzTvyCTZ4oGqtsYN-90" value="&lt;font style=&quot;font-size: 10px;&quot;&gt;Order&lt;/font&gt;" style="text;html=1;align=center;verticalAlign=middle;resizable=0;points=[];autosize=1;strokeColor=none;fillColor=none;" vertex="1" parent="1">
          <mxGeometry x="540" y="373" width="50" height="30" as="geometry" />
        </mxCell>
        <mxCell id="cSr-MzTvyCTZ4oGqtsYN-92" value="" style="endArrow=classic;html=1;rounded=0;fillColor=#ffe6cc;strokeColor=#d79b00;" edge="1" parent="1">
          <mxGeometry width="50" height="50" relative="1" as="geometry">
            <mxPoint x="511" y="329.5" as="sourcePoint" />
            <mxPoint x="511" y="430" as="targetPoint" />
          </mxGeometry>
        </mxCell>
        <mxCell id="cSr-MzTvyCTZ4oGqtsYN-93" value="Order Pro." style="text;html=1;align=center;verticalAlign=middle;resizable=0;points=[];autosize=1;strokeColor=none;fillColor=none;rotation=90;" vertex="1" parent="1">
          <mxGeometry x="485" y="364" width="80" height="30" as="geometry" />
        </mxCell>
        <mxCell id="cSr-MzTvyCTZ4oGqtsYN-96" value="" style="endArrow=classic;html=1;rounded=0;exitX=0.213;exitY=0.954;exitDx=0;exitDy=0;exitPerimeter=0;entryX=0.047;entryY=0.203;entryDx=0;entryDy=0;entryPerimeter=0;fillColor=#ffe6cc;strokeColor=#d79b00;" edge="1" parent="1" source="cSr-MzTvyCTZ4oGqtsYN-90" target="cSr-MzTvyCTZ4oGqtsYN-60">
          <mxGeometry width="50" height="50" relative="1" as="geometry">
            <mxPoint x="555" y="407" as="sourcePoint" />
            <mxPoint x="530" y="434" as="targetPoint" />
          </mxGeometry>
        </mxCell>
        <mxCell id="cSr-MzTvyCTZ4oGqtsYN-97" value="" style="endArrow=classic;html=1;rounded=0;exitX=0.197;exitY=1.022;exitDx=0;exitDy=0;exitPerimeter=0;fillColor=#ffe6cc;strokeColor=#d79b00;" edge="1" parent="1" source="cSr-MzTvyCTZ4oGqtsYN-72" target="cSr-MzTvyCTZ4oGqtsYN-60">
          <mxGeometry width="50" height="50" relative="1" as="geometry">
            <mxPoint x="660" y="450" as="sourcePoint" />
            <mxPoint x="552.5" y="462.5" as="targetPoint" />
          </mxGeometry>
        </mxCell>
        <mxCell id="cSr-MzTvyCTZ4oGqtsYN-98" value="" style="endArrow=classic;html=1;rounded=0;entryX=0.369;entryY=0.021;entryDx=0;entryDy=0;entryPerimeter=0;fillColor=#ffe6cc;strokeColor=#d79b00;" edge="1" parent="1" source="cSr-MzTvyCTZ4oGqtsYN-87" target="cSr-MzTvyCTZ4oGqtsYN-60">
          <mxGeometry width="50" height="50" relative="1" as="geometry">
            <mxPoint x="570" y="420" as="sourcePoint" />
            <mxPoint x="545" y="448" as="targetPoint" />
          </mxGeometry>
        </mxCell>
        <mxCell id="cSr-MzTvyCTZ4oGqtsYN-100" value="" style="endArrow=classic;html=1;rounded=0;entryX=0.649;entryY=0.956;entryDx=0;entryDy=0;entryPerimeter=0;fillColor=#ffe6cc;strokeColor=#d79b00;" edge="1" parent="1" source="cSr-MzTvyCTZ4oGqtsYN-83" target="cSr-MzTvyCTZ4oGqtsYN-5">
          <mxGeometry width="50" height="50" relative="1" as="geometry">
            <mxPoint x="390" y="350" as="sourcePoint" />
            <mxPoint x="440" y="300" as="targetPoint" />
          </mxGeometry>
        </mxCell>
        <mxCell id="cSr-MzTvyCTZ4oGqtsYN-101" value="" style="endArrow=classic;html=1;rounded=0;exitX=1.026;exitY=0.864;exitDx=0;exitDy=0;exitPerimeter=0;fillColor=#ffe6cc;strokeColor=#d79b00;" edge="1" parent="1" source="cSr-MzTvyCTZ4oGqtsYN-83">
          <mxGeometry width="50" height="50" relative="1" as="geometry">
            <mxPoint x="440" y="380" as="sourcePoint" />
            <mxPoint x="500" y="440" as="targetPoint" />
          </mxGeometry>
        </mxCell>
        <mxCell id="cSr-MzTvyCTZ4oGqtsYN-102" value="" style="endArrow=classic;html=1;rounded=0;entryX=0.632;entryY=0.98;entryDx=0;entryDy=0;entryPerimeter=0;fillColor=#ffe6cc;strokeColor=#d79b00;" edge="1" parent="1" target="cSr-MzTvyCTZ4oGqtsYN-83">
          <mxGeometry width="50" height="50" relative="1" as="geometry">
            <mxPoint x="487.5" y="452" as="sourcePoint" />
            <mxPoint x="447.5" y="412" as="targetPoint" />
          </mxGeometry>
        </mxCell>
        <mxCell id="cSr-MzTvyCTZ4oGqtsYN-103" value="" style="endArrow=classic;html=1;rounded=0;fillColor=#ffe6cc;strokeColor=#d79b00;" edge="1" parent="1">
          <mxGeometry width="50" height="50" relative="1" as="geometry">
            <mxPoint x="160" y="450" as="sourcePoint" />
            <mxPoint x="120" y="480" as="targetPoint" />
          </mxGeometry>
        </mxCell>
        <mxCell id="cSr-MzTvyCTZ4oGqtsYN-105" value="" style="endArrow=classic;html=1;rounded=0;fillColor=#ffe6cc;strokeColor=#d79b00;" edge="1" parent="1">
          <mxGeometry width="50" height="50" relative="1" as="geometry">
            <mxPoint x="160" y="510" as="sourcePoint" />
            <mxPoint x="135" y="510" as="targetPoint" />
          </mxGeometry>
        </mxCell>
        <mxCell id="cSr-MzTvyCTZ4oGqtsYN-106" value="" style="endArrow=classic;html=1;rounded=0;exitX=1;exitY=1;exitDx=0;exitDy=0;fillColor=#ffe6cc;strokeColor=#d79b00;" edge="1" parent="1" source="cSr-MzTvyCTZ4oGqtsYN-41">
          <mxGeometry width="50" height="50" relative="1" as="geometry">
            <mxPoint x="30" y="530" as="sourcePoint" />
            <mxPoint x="160" y="550" as="targetPoint" />
          </mxGeometry>
        </mxCell>
        <mxCell id="cSr-MzTvyCTZ4oGqtsYN-107" value="" style="endArrow=classic;html=1;rounded=0;entryX=-0.052;entryY=0.04;entryDx=0;entryDy=0;entryPerimeter=0;strokeColor=#FF8000;" edge="1" parent="1" target="cSr-MzTvyCTZ4oGqtsYN-55">
          <mxGeometry width="50" height="50" relative="1" as="geometry">
            <mxPoint x="230" y="450" as="sourcePoint" />
            <mxPoint x="340" y="390" as="targetPoint" />
          </mxGeometry>
        </mxCell>
        <mxCell id="cSr-MzTvyCTZ4oGqtsYN-108" value="" style="endArrow=classic;html=1;rounded=0;exitX=-0.022;exitY=0.823;exitDx=0;exitDy=0;exitPerimeter=0;fillColor=#ffe6cc;strokeColor=#d79b00;" edge="1" parent="1" source="cSr-MzTvyCTZ4oGqtsYN-55">
          <mxGeometry width="50" height="50" relative="1" as="geometry">
            <mxPoint x="310" y="510" as="sourcePoint" />
            <mxPoint x="240" y="510" as="targetPoint" />
          </mxGeometry>
        </mxCell>
        <mxCell id="cSr-MzTvyCTZ4oGqtsYN-109" value="" style="endArrow=classic;html=1;rounded=0;fillColor=#ffe6cc;strokeColor=#d79b00;" edge="1" parent="1">
          <mxGeometry width="50" height="50" relative="1" as="geometry">
            <mxPoint x="240" y="520" as="sourcePoint" />
            <mxPoint x="340" y="560" as="targetPoint" />
          </mxGeometry>
        </mxCell>
        <mxCell id="cSr-MzTvyCTZ4oGqtsYN-110" value="" style="endArrow=classic;html=1;rounded=0;fillColor=#ffe6cc;strokeColor=#d79b00;" edge="1" parent="1">
          <mxGeometry width="50" height="50" relative="1" as="geometry">
            <mxPoint x="340" y="580" as="sourcePoint" />
            <mxPoint x="230" y="550" as="targetPoint" />
          </mxGeometry>
        </mxCell>
        <mxCell id="cSr-MzTvyCTZ4oGqtsYN-111" value="" style="endArrow=classic;html=1;rounded=0;fillColor=#ffe6cc;strokeColor=#d79b00;" edge="1" parent="1">
          <mxGeometry width="50" height="50" relative="1" as="geometry">
            <mxPoint x="70" y="245.5" as="sourcePoint" />
            <mxPoint x="340" y="590" as="targetPoint" />
            <Array as="points">
              <mxPoint x="30" y="246" />
              <mxPoint x="30" y="590" />
            </Array>
          </mxGeometry>
        </mxCell>
        <mxCell id="cSr-MzTvyCTZ4oGqtsYN-112" value="" style="endArrow=classic;html=1;rounded=0;fillColor=#ffe6cc;strokeColor=#d79b00;" edge="1" parent="1">
          <mxGeometry width="50" height="50" relative="1" as="geometry">
            <mxPoint x="430" y="600" as="sourcePoint" />
            <mxPoint x="410" y="602" as="targetPoint" />
          </mxGeometry>
        </mxCell>
        <mxCell id="cSr-MzTvyCTZ4oGqtsYN-113" value="" style="endArrow=classic;html=1;rounded=0;entryX=1.032;entryY=0.423;entryDx=0;entryDy=0;entryPerimeter=0;exitX=-0.024;exitY=0.615;exitDx=0;exitDy=0;exitPerimeter=0;fillColor=#ffe6cc;strokeColor=#d79b00;" edge="1" parent="1" source="cSr-MzTvyCTZ4oGqtsYN-58" target="cSr-MzTvyCTZ4oGqtsYN-55">
          <mxGeometry width="50" height="50" relative="1" as="geometry">
            <mxPoint x="480" y="470" as="sourcePoint" />
            <mxPoint x="440" y="370" as="targetPoint" />
          </mxGeometry>
        </mxCell>
        <mxCell id="cSr-MzTvyCTZ4oGqtsYN-114" value="&lt;font style=&quot;font-size: 10px;&quot;&gt;Order Pro.&lt;/font&gt;" style="text;html=1;align=center;verticalAlign=middle;resizable=0;points=[];autosize=1;strokeColor=none;fillColor=none;rotation=-5;" vertex="1" parent="1">
          <mxGeometry x="417.5" y="451.5" width="70" height="30" as="geometry" />
        </mxCell>
        <mxCell id="cSr-MzTvyCTZ4oGqtsYN-115" value="" style="endArrow=classic;html=1;rounded=0;entryX=0.179;entryY=1.007;entryDx=0;entryDy=0;entryPerimeter=0;fillColor=#ffe6cc;strokeColor=#d79b00;" edge="1" parent="1" target="cSr-MzTvyCTZ4oGqtsYN-61">
          <mxGeometry width="50" height="50" relative="1" as="geometry">
            <mxPoint x="410" y="580" as="sourcePoint" />
            <mxPoint x="460" y="530" as="targetPoint" />
          </mxGeometry>
        </mxCell>
        <mxCell id="cSr-MzTvyCTZ4oGqtsYN-116" value="&lt;font style=&quot;font-size: 10px;&quot;&gt;Pre-Paid&lt;/font&gt;" style="text;html=1;align=center;verticalAlign=middle;resizable=0;points=[];autosize=1;strokeColor=none;fillColor=none;rotation=-10;" vertex="1" parent="1">
          <mxGeometry x="455" y="544" width="60" height="30" as="geometry" />
        </mxCell>
        <mxCell id="cSr-MzTvyCTZ4oGqtsYN-117" value="" style="endArrow=classic;html=1;rounded=0;entryX=0.402;entryY=-0.088;entryDx=0;entryDy=0;entryPerimeter=0;fillColor=#ffe6cc;strokeColor=#d79b00;" edge="1" parent="1" target="cSr-MzTvyCTZ4oGqtsYN-63">
          <mxGeometry width="50" height="50" relative="1" as="geometry">
            <mxPoint x="640" y="560" as="sourcePoint" />
            <mxPoint x="690" y="510" as="targetPoint" />
          </mxGeometry>
        </mxCell>
        <mxCell id="cSr-MzTvyCTZ4oGqtsYN-118" value="&lt;font style=&quot;font-size: 10px;&quot;&gt;Invoice&lt;/font&gt;" style="text;html=1;align=center;verticalAlign=middle;resizable=0;points=[];autosize=1;strokeColor=none;fillColor=none;rotation=22;" vertex="1" parent="1">
          <mxGeometry x="652.5" y="548" width="60" height="30" as="geometry" />
        </mxCell>
        <mxCell id="cSr-MzTvyCTZ4oGqtsYN-121" value="&lt;font style=&quot;font-size: 15px;&quot;&gt;Pre-Paid&lt;/font&gt;" style="text;html=1;align=center;verticalAlign=middle;resizable=0;points=[];autosize=1;strokeColor=none;fillColor=none;rotation=90;" vertex="1" parent="1">
          <mxGeometry x="4" y="403" width="80" height="30" as="geometry" />
        </mxCell>
        <mxCell id="cSr-MzTvyCTZ4oGqtsYN-122" value="" style="endArrow=classic;html=1;rounded=0;entryX=0.5;entryY=0;entryDx=0;entryDy=0;exitX=0.301;exitY=1.024;exitDx=0;exitDy=0;exitPerimeter=0;fillColor=#ffe6cc;strokeColor=#d79b00;" edge="1" parent="1" source="cSr-MzTvyCTZ4oGqtsYN-1" target="cSr-MzTvyCTZ4oGqtsYN-41">
          <mxGeometry width="50" height="50" relative="1" as="geometry">
            <mxPoint x="102" y="260" as="sourcePoint" />
            <mxPoint x="170" y="220" as="targetPoint" />
          </mxGeometry>
        </mxCell>
        <mxCell id="cSr-MzTvyCTZ4oGqtsYN-124" value="&lt;font style=&quot;font-size: 15px;&quot;&gt;Owed&amp;nbsp; Amount&lt;/font&gt;" style="text;html=1;align=center;verticalAlign=middle;resizable=0;points=[];autosize=1;strokeColor=none;fillColor=none;rotation=90;" vertex="1" parent="1">
          <mxGeometry x="35" y="373" width="120" height="30" as="geometry" />
        </mxCell>
        <mxCell id="cSr-MzTvyCTZ4oGqtsYN-125" value="" style="endArrow=classic;html=1;rounded=0;entryX=0.448;entryY=0.027;entryDx=0;entryDy=0;entryPerimeter=0;strokeColor=#FF8000;" edge="1" parent="1" target="cSr-MzTvyCTZ4oGqtsYN-1">
          <mxGeometry width="50" height="50" relative="1" as="geometry">
            <mxPoint x="515" y="160.5" as="sourcePoint" />
            <mxPoint x="110" y="120" as="targetPoint" />
            <Array as="points">
              <mxPoint x="515" y="120" />
              <mxPoint x="116" y="120" />
            </Array>
          </mxGeometry>
        </mxCell>
        <mxCell id="cSr-MzTvyCTZ4oGqtsYN-126" value="&lt;font style=&quot;font-size: 15px;&quot;&gt;Message&quot;not enough&quot;&lt;/font&gt;" style="text;html=1;align=center;verticalAlign=middle;resizable=0;points=[];autosize=1;strokeColor=none;fillColor=none;rotation=0;" vertex="1" parent="1">
          <mxGeometry x="235" y="92" width="170" height="30" as="geometry" />
        </mxCell>
        <mxCell id="cSr-MzTvyCTZ4oGqtsYN-127" value="" style="endArrow=classic;html=1;rounded=0;entryX=0.304;entryY=1.006;entryDx=0;entryDy=0;entryPerimeter=0;fillColor=#ffe6cc;strokeColor=#d79b00;" edge="1" parent="1" target="cSr-MzTvyCTZ4oGqtsYN-60">
          <mxGeometry width="50" height="50" relative="1" as="geometry">
            <mxPoint x="500" y="600" as="sourcePoint" />
            <mxPoint x="550" y="550" as="targetPoint" />
          </mxGeometry>
        </mxCell>
        <mxCell id="cSr-MzTvyCTZ4oGqtsYN-128" value="" style="endArrow=classic;html=1;rounded=0;entryX=0.809;entryY=0.957;entryDx=0;entryDy=0;entryPerimeter=0;exitX=-0.035;exitY=0.642;exitDx=0;exitDy=0;exitPerimeter=0;fillColor=#ffe6cc;strokeColor=#d79b00;" edge="1" parent="1" source="cSr-MzTvyCTZ4oGqtsYN-66" target="cSr-MzTvyCTZ4oGqtsYN-54">
          <mxGeometry width="50" height="50" relative="1" as="geometry">
            <mxPoint x="420" y="550" as="sourcePoint" />
            <mxPoint x="470" y="500" as="targetPoint" />
          </mxGeometry>
        </mxCell>
        <mxCell id="FCxgYb9vu4gPD5yThVuQ-1" value="" style="shape=process;whiteSpace=wrap;html=1;backgroundOutline=1;strokeColor=#29FF4C;fillColor=#006633;" vertex="1" parent="1">
          <mxGeometry x="310" y="10" width="120" height="60" as="geometry" />
        </mxCell>
        <mxCell id="FCxgYb9vu4gPD5yThVuQ-2" value="&lt;font color=&quot;#ffffff&quot; style=&quot;font-size: 14px;&quot;&gt;6. Physical&lt;/font&gt;&lt;div&gt;&lt;font color=&quot;#ffffff&quot; style=&quot;font-size: 14px;&quot;&gt;Level-Diagram&lt;/font&gt;&lt;/div&gt;" style="text;html=1;align=center;verticalAlign=middle;resizable=0;points=[];autosize=1;strokeColor=none;fillColor=none;" vertex="1" parent="1">
          <mxGeometry x="315" y="15" width="110" height="50" as="geometry" />
        </mxCell>
      </root>
    </mxGraphModel>
  </diagram>
</mxfile>
